<?xml version="1.0" encoding="utf-8"?>
<svg viewBox="0 9.2 299.816 299.816" xmlns="http://www.w3.org/2000/svg">
  <ellipse style="fill: rgb(226, 224, 221);" cx="149.908" cy="159.108" rx="149.908" ry="149.908" transform="matrix(0.9999999999999999, 0, 0, 0.9999999999999999, -5.684341886080802e-14, 0)"/>
  <path d="M 223.659 123.341 C 222.538 124.211 202.743 135.366 202.743 160.166 C 202.743 188.853 227.931 199 228.684 199.252 C 228.568 199.871 224.683 213.152 215.404 226.682 C 207.132 238.59 198.49 250.479 185.347 250.479 C 172.201 250.479 168.819 242.843 153.644 242.843 C 138.856 242.843 133.599 250.73 121.575 250.73 C 109.55 250.73 101.161 239.712 91.516 226.18 C 80.343 210.291 71.315 185.605 71.315 162.176 C 71.315 124.597 95.748 104.668 119.796 104.668 C 132.573 104.668 143.225 113.058 151.247 113.058 C 158.883 113.058 170.79 104.166 185.328 104.166 C 190.836 104.166 210.629 104.668 223.659 123.341 Z M 178.426 88.257 C 184.437 81.123 188.69 71.226 188.69 61.33 C 188.69 59.957 188.574 58.566 188.322 57.444 C 178.541 57.811 166.905 63.958 159.887 72.096 C 154.379 78.359 149.237 88.257 149.237 98.289 C 149.237 99.797 149.487 101.305 149.603 101.788 C 150.222 101.904 151.227 102.04 152.234 102.04 C 161.008 102.04 172.048 96.162 178.426 88.257 Z" style="fill: rgb(63, 62, 65);" transform="matrix(0.9999999999999999, 0, 0, 0.9999999999999999, -5.684341886080802e-14, 0)"/>
</svg>