<?xml version="1.0" encoding="utf-8"?>
<!-- Generator: Adobe Illustrator 25.4.1, SVG Export Plug-In . SVG Version: 6.00 Build 0)  -->
<svg version="1.1" id="Your_design" xmlns="http://www.w3.org/2000/svg" xmlns:xlink="http://www.w3.org/1999/xlink" x="0px"
	 y="0px" viewBox="0 0 150 30" style="enable-background:new 0 0 150 30;" xml:space="preserve">
<style type="text/css">
	.st0{fill:#9C9BC5;}
</style>
<g>
	<polygon class="st0" points="9.4,12.6 15.2,6.8 21,12.6 24.4,9.3 15.2,0.1 6,9.3 	"/>
	<rect x="1.2" y="12.6" transform="matrix(0.7071 -0.7071 0.7071 0.7071 -9.5685 6.9675)" class="st0" width="4.8" height="4.8"/>
	<polygon class="st0" points="9.4,17.4 15.2,23.2 21,17.4 24.4,20.8 24.4,20.8 15.2,30 6,20.8 6,20.8 	"/>
	<rect x="24.4" y="12.6" transform="matrix(0.7071 -0.7071 0.7071 0.7071 -2.79 23.3331)" class="st0" width="4.8" height="4.8"/>
	<polygon class="st0" points="18.6,15 18.6,15 15.2,11.6 12.7,14.1 12.7,14.1 12.4,14.4 11.8,15 11.8,15 11.8,15 11.8,15 15.2,18.4 
		18.6,15 	"/>
	<path class="st0" d="M35.4,7.3h7.3c1.8,0,3.2,0.5,4.1,1.4c0.7,0.7,1.1,1.6,1.1,2.7v0c0,0.4,0,0.9-0.2,1.2c-0.1,0.4-0.3,0.7-0.4,0.9
		s-0.4,0.5-0.7,0.7c-0.2,0.2-0.5,0.4-0.8,0.5c0.9,0.4,1.6,0.8,2.2,1.4c0.5,0.6,0.8,1.4,0.8,2.5v0c0,0.7-0.1,1.4-0.4,1.9
		c-0.3,0.5-0.7,1-1.2,1.4c-0.5,0.4-1.2,0.6-1.9,0.8c-0.7,0.2-1.5,0.3-2.4,0.3h-7.5L35.4,7.3L35.4,7.3z M42,13.7
		c0.8,0,1.4-0.1,1.8-0.4s0.7-0.7,0.7-1.3v0c0-0.5-0.2-0.9-0.6-1.2c-0.4-0.3-1-0.4-1.7-0.4h-3.4v3.4C38.8,13.7,42,13.7,42,13.7z
		 M43,20.1c0.8,0,1.4-0.1,1.8-0.4c0.4-0.3,0.7-0.7,0.7-1.3v0c0-0.5-0.2-0.9-0.6-1.3c-0.4-0.3-1.1-0.5-2-0.5h-4v3.5H43L43,20.1z"/>
	<path class="st0" d="M53.3,7.3h3.5v15.8h-3.5V7.3z"/>
	<path class="st0" d="M62,7.3h3.2l7.4,9.8V7.3h3.4v15.8h-3l-7.7-10.1v10.1H62V7.3z"/>
	<path class="st0" d="M86.7,7.2h3.2l6.8,16h-3.6l-1.4-3.6h-6.7l-1.4,3.6h-3.6L86.7,7.2z M90.3,16.5l-2.1-5.1l-2.1,5.1H90.3z"/>
	<path class="st0" d="M100.5,7.3h3.2l7.4,9.8V7.3h3.4v15.8h-3l-7.7-10.1v10.1h-3.4L100.5,7.3L100.5,7.3z"/>
	<path class="st0" d="M127.1,23.5c-1.2,0-2.2-0.2-3.2-0.6c-1-0.4-1.9-1-2.6-1.7c-0.7-0.7-1.3-1.6-1.7-2.6c-0.4-1-0.6-2.1-0.6-3.2v0
		c0-1.1,0.2-2.2,0.6-3.2c0.4-1,1-1.9,1.7-2.6c0.7-0.8,1.6-1.3,2.6-1.8s2.1-0.6,3.4-0.6c0.7,0,1.4,0.1,2,0.2c0.6,0.1,1.2,0.3,1.7,0.5
		c0.5,0.2,1,0.5,1.4,0.8c0.4,0.3,0.8,0.6,1.2,1l-2.2,2.6c-0.6-0.6-1.3-1-1.9-1.3c-0.6-0.3-1.4-0.5-2.2-0.5c-0.7,0-1.3,0.1-1.8,0.4
		c-0.6,0.3-1.1,0.6-1.5,1.1c-0.4,0.4-0.7,1-0.9,1.6c-0.2,0.6-0.3,1.2-0.3,1.9v0c0,0.7,0.1,1.3,0.3,1.9c0.2,0.6,0.5,1.1,0.9,1.6
		c0.4,0.4,0.9,0.8,1.4,1.1c0.6,0.3,1.2,0.4,1.9,0.4c0.9,0,1.7-0.2,2.3-0.5c0.6-0.3,1.3-0.8,1.9-1.4l2.2,2.2
		c-0.4,0.4-0.8,0.8-1.3,1.2c-0.4,0.4-0.9,0.6-1.4,0.9c-0.5,0.3-1.1,0.4-1.7,0.6C128.6,23.4,127.9,23.5,127.1,23.5z"/>
	<path class="st0" d="M137.7,7.3h11.9v3.1h-8.5v3.2h7.5v3.1h-7.5v3.3h8.6v3.1h-12L137.7,7.3L137.7,7.3z"/>
</g>
</svg>
