<?xml version="1.0" encoding="utf-8"?>
<!-- Generator: Adobe Illustrator 25.4.1, SVG Export Plug-In . SVG Version: 6.00 Build 0)  -->
<svg version="1.1" id="Layer_1" xmlns="http://www.w3.org/2000/svg" xmlns:xlink="http://www.w3.org/1999/xlink" x="0px" y="0px"
	 viewBox="0 0 150 35.4" style="enable-background:new 0 0 150 35.4;" xml:space="preserve">
<style type="text/css">
	.st0{fill:#9C9BC5;}
	.st1{fill-rule:evenodd;clip-rule:evenodd;fill:#9C9BC5;}
</style>
<g>
	<path class="st0" d="M54.9,14.2c-0.1,0.1-0.3,0.1-0.5,0.1c-0.2,0-0.3-0.1-0.4-0.3c-0.5-0.7-1.1-1.2-1.8-1.6
		c-0.7-0.4-1.5-0.6-2.4-0.5c-3.2,0-5.1,2.5-5.1,6.1s2,6.2,5.2,6.2c0.8,0,1.6-0.2,2.4-0.6c0.7-0.4,1.4-1,1.8-1.6
		c0.1-0.1,0.2-0.2,0.4-0.3c0.2,0,0.3,0,0.5,0.1l1.5,0.9c0.1,0,0.2,0.1,0.2,0.2c0.1,0.1,0.1,0.2,0.1,0.3c0,0.1,0,0.2,0,0.3
		s-0.1,0.2-0.1,0.3c-0.7,1.1-1.7,2-2.9,2.6c-1.2,0.6-2.5,0.9-3.8,0.9c-5.1,0-8.5-3.7-8.5-9.1s3.4-9,8.5-9c1.3,0,2.6,0.3,3.8,0.8
		c1.2,0.6,2.2,1.4,3,2.5c0.1,0.1,0.1,0.2,0.1,0.2c0,0.1,0,0.2,0,0.3c0,0.1-0.1,0.2-0.1,0.3c-0.1,0.1-0.1,0.1-0.2,0.2L54.9,14.2z"/>
	<path class="st1" d="M66.1,25.4v0.7c0,0.1,0,0.2,0.1,0.3s0.1,0.2,0.2,0.2c0.1,0.1,0.1,0.1,0.2,0.1c0.1,0,0.2,0.1,0.3,0h1.7
		c0.1,0,0.2,0,0.2-0.1c0.1,0,0.2-0.1,0.2-0.1c0.1-0.1,0.1-0.1,0.1-0.2c0-0.1,0.1-0.2,0.1-0.2v-8.3c0-3-2.1-4.3-5.2-4.3
		c-1.7,0-3.4,0.4-4.9,1.2c-0.2,0.1-0.3,0.2-0.3,0.4c-0.1,0.2,0,0.3,0,0.5l0.5,1.1c0,0.1,0.1,0.2,0.2,0.2c0.1,0.1,0.1,0.1,0.2,0.1
		c0.1,0,0.2,0,0.3,0c0.1,0,0.2,0,0.2-0.1c1.1-0.6,2.3-0.9,3.5-0.9c1.1,0,2.3,0.3,2.3,1.4c0,1.1-1.4,1.3-3,1.6c-0.1,0-0.3,0-0.4,0.1
		c-1.7,0.2-4.6,0.8-4.6,3.9c0,2.5,1.8,4,4.5,4C64.2,27,65.3,26.4,66.1,25.4z M63.5,21.1c1-0.2,1.9-0.3,2.4-0.7v1.5
		c0,1.9-1.4,2.8-2.9,2.8c-1.2,0-2-0.5-2-1.7c0-1.2,1-1.6,2.1-1.8C63.2,21.1,63.3,21.1,63.5,21.1L63.5,21.1z"/>
	<path class="st0" d="M71.8,23.5c0.1-0.1,0.3-0.2,0.4-0.2c0.2,0,0.3,0,0.5,0.1c1.1,0.8,2.4,1.2,3.7,1.2c1.4,0,2.4-0.4,2.4-1.5
		c0-1-0.9-1.2-3.2-1.6c-2.4-0.4-4.7-1.2-4.7-3.9c0-2.8,2.5-4,5.2-4c1.7,0,3.5,0.5,4.9,1.6c0.1,0.1,0.1,0.1,0.2,0.2
		c0,0.1,0.1,0.2,0.1,0.3c0,0.1,0,0.2,0,0.3c0,0.1-0.1,0.2-0.1,0.2L80.3,17c-0.1,0.1-0.3,0.2-0.4,0.2c-0.2,0-0.3,0-0.5-0.1
		c-1-0.7-2.2-1.1-3.4-1.1c-1.2,0-2.2,0.3-2.2,1.3c0,1,1.4,1.2,2.9,1.5c3.1,0.5,5,1.4,5,4c0,2.7-2.2,4.4-5.6,4.4
		c-1.9,0.1-3.7-0.5-5.2-1.7c-0.1-0.1-0.1-0.1-0.2-0.2c0-0.1-0.1-0.2-0.1-0.2s0-0.2,0-0.3c0-0.1,0.1-0.2,0.1-0.2L71.8,23.5z
		 M83.6,26.1V9.9c0-0.1,0-0.2,0.1-0.3c0-0.1,0.1-0.2,0.1-0.2c0.1-0.1,0.1-0.1,0.2-0.1c0.1,0,0.2-0.1,0.2-0.1h1.8
		c0.4,0,0.6,0.3,0.6,0.6v5.5c0.5-0.6,1.1-1.1,1.7-1.4c0.7-0.3,1.4-0.5,2.2-0.5c2.7,0,4.3,1.9,4.3,4.7v7.9c0,0.1,0,0.2-0.1,0.2
		c0,0.1-0.1,0.2-0.1,0.2c-0.1,0.1-0.1,0.1-0.2,0.1c-0.1,0-0.2,0.1-0.2,0.1h-1.8c-0.2,0-0.3-0.1-0.5-0.2c-0.1-0.1-0.2-0.3-0.2-0.5
		v-7.2c0-1.4-0.4-2.6-2.2-2.6c-1.7,0-2.9,1.2-2.9,3.1v6.7c0,0.2-0.1,0.3-0.2,0.5c-0.1,0.1-0.3,0.2-0.5,0.2h-1.8
		c-0.1,0-0.2,0-0.3-0.1c-0.1,0-0.2-0.1-0.2-0.1c-0.1-0.1-0.1-0.1-0.1-0.2C83.6,26.3,83.6,26.2,83.6,26.1L83.6,26.1z"/>
	<path class="st1" d="M113.9,22.4l1.3,3.9c0,0.1,0.1,0.2,0.2,0.3s0.2,0.1,0.4,0.1h2.3c0.1,0,0.2,0,0.3-0.1c0.1-0.1,0.2-0.1,0.2-0.2
		c0.1-0.1,0.1-0.2,0.1-0.3c0-0.1,0-0.2,0-0.3l-6-16.2c-0.1-0.1-0.1-0.2-0.2-0.3c-0.1-0.1-0.2-0.1-0.4-0.1h-2.9c-0.1,0-0.3,0-0.4,0.1
		s-0.2,0.2-0.2,0.3l-6,16.2c0,0.1-0.1,0.2,0,0.3c0,0.1,0.1,0.2,0.1,0.3c0.1,0.1,0.1,0.2,0.2,0.2c0.1,0.1,0.2,0.1,0.3,0.1h2.2
		c0.1,0,0.3,0,0.4-0.1c0.1-0.1,0.2-0.2,0.2-0.3l1.3-3.9H113.9z M108,19.7l2.6-7.6l2.5,7.6H108z M123.2,15.5v-1c0-0.1,0-0.2,0-0.3
		c0-0.1-0.1-0.2-0.1-0.2c-0.1-0.1-0.1-0.1-0.2-0.2c-0.1,0-0.2-0.1-0.3-0.1h-1.8c-0.4,0-0.6,0.3-0.6,0.6v15.9c0,0.4,0.3,0.6,0.6,0.6
		h1.8c0.4,0,0.6-0.3,0.6-0.6v-5.3c0.5,0.6,1,1.1,1.7,1.5c0.7,0.3,1.5,0.5,2.2,0.5c3.5,0,5.8-2.9,5.8-6.8s-2.3-6.7-5.8-6.7
		c-0.8,0-1.5,0.1-2.2,0.5C124.3,14.3,123.7,14.8,123.2,15.5L123.2,15.5z M129.8,20.3c0,2.2-1,4.1-3.2,4.1c-2.2,0-3.3-1.8-3.3-4.1
		s1.2-4,3.3-4C128.7,16.3,129.8,18.1,129.8,20.3z M138.1,15.5v-1c0-0.1,0-0.2,0-0.3c0-0.1-0.1-0.2-0.1-0.2c-0.1-0.1-0.1-0.1-0.2-0.2
		c-0.1,0-0.2-0.1-0.3-0.1h-1.8c-0.2,0-0.3,0.1-0.5,0.2c-0.1,0.1-0.2,0.3-0.2,0.5v15.9c0,0.4,0.3,0.6,0.6,0.6h1.8
		c0.4,0,0.6-0.3,0.6-0.6v-5.3c0.5,0.6,1,1.1,1.7,1.5c0.7,0.3,1.5,0.5,2.2,0.5c3.5,0,5.8-2.9,5.8-6.8s-2.3-6.7-5.8-6.7
		c-0.8,0-1.5,0.1-2.2,0.5C139.1,14.3,138.5,14.8,138.1,15.5L138.1,15.5z M144.6,20.3c0,2.2-1,4.1-3.2,4.1c-2.2,0-3.3-1.8-3.3-4.1
		s1.2-4,3.3-4C143.5,16.3,144.6,18.1,144.6,20.3z"/>
	<path class="st1" d="M36,5.5c-0.4-1-0.9-1.9-1.7-2.7c-0.8-0.8-1.7-1.3-2.7-1.7c-1.9-0.6-3.6-0.6-7.1-0.6H14.1c-3.4,0-5.2,0-7,0.6
		C6.1,1.4,5.2,2,4.4,2.8S3.1,4.5,2.7,5.5c-0.6,1.9-0.6,3.6-0.6,7v10.4c0,3.5,0,5.2,0.6,7c0.4,1,0.9,1.9,1.7,2.7
		c0.8,0.8,1.7,1.3,2.7,1.7c1.9,0.6,3.6,0.6,7,0.6h10.4c3.5,0,5.2,0,7-0.6c1-0.4,1.9-0.9,2.7-1.7C35,31.9,35.6,31,36,30
		c0.6-1.9,0.6-3.6,0.6-7V12.5C36.6,9.1,36.6,7.3,36,5.5z M27.3,11.9c0,0.1-0.1,0.2-0.2,0.2l-1.3,1.3c-0.1,0.1-0.3,0.2-0.5,0.2
		c-0.2,0-0.4-0.1-0.5-0.2c-1.3-1.1-2.9-1.7-4.6-1.7c-1.4,0-2.8,0.5-2.8,1.7c0,1.3,1.5,1.7,3.2,2.4c3,1,5.5,2.3,5.5,5.2
		c0,3.2-2.5,5.4-6.6,5.7l-0.4,1.7c0,0.2-0.1,0.3-0.3,0.4C18.9,29,18.7,29,18.5,29H16c-0.1,0-0.2,0-0.3-0.1c-0.1-0.1-0.2-0.1-0.2-0.2
		c-0.1-0.1-0.1-0.2-0.1-0.3c0-0.1,0-0.2,0-0.3l0.4-1.8c-1.5-0.4-3-1.2-4.1-2.3c-0.1-0.1-0.1-0.1-0.2-0.2s-0.1-0.2-0.1-0.3
		c0-0.1,0-0.2,0.1-0.3c0-0.1,0.1-0.2,0.2-0.2l1.4-1.4c0.1-0.1,0.3-0.2,0.5-0.2s0.4,0.1,0.5,0.2c1.3,1.2,3.1,1.9,4.9,1.9
		c1.9,0,3.1-0.8,3.1-2c0-1.3-1.3-1.6-3.6-2.5c-2.5-0.9-4.9-2.2-4.9-5.2c0-3.5,2.9-5.1,6.3-5.3l0.4-1.7c0.1-0.2,0.1-0.3,0.3-0.4
		c0.1-0.1,0.3-0.2,0.4-0.2h2.6c0.1,0,0.2,0,0.3,0.1c0.1,0,0.2,0.1,0.2,0.2C23.9,6.7,24,6.8,24,6.9s0,0.2,0,0.3l-0.4,2
		c1.3,0.4,2.5,1.1,3.5,2c0.1,0.1,0.1,0.1,0.2,0.2c0,0.1,0.1,0.2,0.1,0.3C27.4,11.7,27.3,11.8,27.3,11.9z"/>
</g>
</svg>
