<?xml version="1.0" encoding="utf-8"?>
<!-- Generator: Adobe Illustrator 25.4.1, SVG Export Plug-In . SVG Version: 6.00 Build 0)  -->
<svg version="1.1" id="Layer_1" xmlns="http://www.w3.org/2000/svg" xmlns:xlink="http://www.w3.org/1999/xlink" x="0px" y="0px"
	 viewBox="0 0 150 26.8" style="enable-background:new 0 0 150 26.8;" xml:space="preserve">
<style type="text/css">
	.st0{clip-path:url(#SVGID_00000110460367452532965250000010092451892256462781_);}
	.st1{fill:#9C9BC5;}
</style>
<g>
	<g>
		<g>
			<defs>
				<rect id="SVGID_1_" x="2.3" y="0.4" width="145.3" height="26"/>
			</defs>
			<clipPath id="SVGID_00000093861369201708185300000012421514271239391929_">
				<use xlink:href="#SVGID_1_"  style="overflow:visible;"/>
			</clipPath>
			<g style="clip-path:url(#SVGID_00000093861369201708185300000012421514271239391929_);">
				<path class="st1" d="M31.7,7.7c-5.3,0-9.4,4-9.4,9.4s4,9.4,9.4,9.4s9.5-4,9.5-9.4S37.1,7.7,31.7,7.7z M31.7,22.5
					c-3,0-5.2-2.3-5.2-5.5s2.1-5.5,5.2-5.5S37,13.8,37,17S34.7,22.5,31.7,22.5z M42.3,11.7h2.6V26h4.2V8h-6.8V11.7z M11.7,11.5
					c2.2,0,4,1.3,4.6,3.4h4.4c-0.8-4.3-4.4-7.3-9-7.3c-5.2,0.1-9.4,4-9.4,9.4s4,9.4,9.4,9.4c4.6,0,8.2-2.9,9-7.3h-4.4
					c-0.6,2-2.4,3.4-4.6,3.4c-3,0-5.2-2.3-5.2-5.5C6.6,13.9,8.7,11.5,11.7,11.5z M122,15.3l-3.1-0.4c-1.5-0.2-2.5-0.7-2.5-1.8
					c0-1.3,1.4-1.9,3.2-1.9c2,0,3.4,0.9,3.6,2.3h4c-0.4-3.6-3.2-5.8-7.5-5.8c-4.4,0-7.4,2.3-7.4,5.5c0,3,1.9,4.9,5.8,5.4l3.1,0.4
					c1.5,0.2,2.3,0.8,2.3,1.9c0,1.5-1.5,2-3.5,2c-2.5,0-3.9-1-4.1-2.5h-4.1c0.4,3.5,3.2,6,8.2,6c4.6,0,7.6-2.1,7.6-5.7
					C127.7,17.5,125.5,15.8,122,15.3z M47,0.6c-1.5,0-2.7,1.1-2.7,2.7s1.1,2.7,2.7,2.7c1.5,0,2.7-1.1,2.7-2.7S48.5,0.6,47,0.6z
					 M108.6,14.2c0-3.9-2.4-6.5-7.4-6.5c-4.7,0-7.4,2.4-8,6.1h4.2c0.2-1.5,1.3-2.6,3.7-2.6c2.1,0,3.2,0.9,3.2,2.1
					c0,1.5-1.9,1.9-4.3,2.1c-3.2,0.4-7.2,1.5-7.2,5.6c0,3.2,2.4,5.3,6.3,5.3c3,0,4.9-1.3,5.8-3.2c0.1,1.8,1.5,2.9,3.4,2.9h2.5v-3.7
					h-2.1L108.6,14.2L108.6,14.2z M104.4,18.7c0,2.4-2.1,4.2-4.7,4.2c-1.6,0-2.9-0.6-2.9-2.1c0-1.8,2.1-2.3,4.1-2.5
					c1.9-0.2,2.9-0.6,3.5-1.4V18.7z M82.2,7.7c-2.3,0-4.3,0.9-5.7,2.6V0.4h-4.2V26h4.1v-2.3c1.4,1.7,3.4,2.7,5.8,2.7
					c5.1,0,8.9-4,8.9-9.4S87.2,7.7,82.2,7.7z M81.5,22.5c-3,0-5.2-2.3-5.2-5.5s2.2-5.5,5.2-5.5c3,0,5.2,2.3,5.2,5.5
					C86.8,20.2,84.6,22.5,81.5,22.5z M62.3,7.7c-2.7,0-4.5,1.1-5.6,2.7V8h-4.2v18h4.2v-9.8c0-2.8,1.8-4.7,4.4-4.7
					c2.4,0,3.9,1.7,3.9,4.2V26h4.2V15.4C69.2,10.8,66.8,7.7,62.3,7.7z M147.7,16.5c0-5.2-3.8-8.8-8.9-8.8c-5.4,0-9.4,4-9.4,9.4
					c0,5.6,4.2,9.4,9.4,9.4c4.4,0,7.8-2.6,8.7-6.3h-4.4c-0.6,1.6-2.1,2.5-4.2,2.5c-2.7,0-4.7-1.6-5.2-4.6h13.9V16.5L147.7,16.5z
					 M134,15.1c0.7-2.5,2.5-3.7,4.7-3.7c2.4,0,4.2,1.3,4.6,3.7H134z"/>
			</g>
		</g>
	</g>
</g>
</svg>
