<?xml version="1.0" encoding="utf-8"?>
<!-- Generator: Adobe Illustrator 25.4.1, SVG Export Plug-In . SVG Version: 6.00 Build 0)  -->
<svg version="1.1" id="Layer_1" xmlns="http://www.w3.org/2000/svg" xmlns:xlink="http://www.w3.org/1999/xlink" x="0px" y="0px"
	 viewBox="0 0 150 26.3" style="enable-background:new 0 0 150 26.3;" xml:space="preserve">
<style type="text/css">
	.st0{fill:#9C9BC5;}
	.st1{fill:#A7A7D3;}
	.st2{fill:#BABAE2;}
	.st3{fill:#F79E1B;}
</style>
<g>
	<path class="st0" d="M65.4,17.5v-5.3c0-2-1.3-3.4-3.4-3.4c-1.2-0.1-2.4,0.5-3,1.5c-0.6-1-1.7-1.6-2.8-1.5c-1,0-2,0.4-2.5,1.3V8.9
		h-1.9v8.5h1.9v-4.7c0-1.5,0.8-2.3,2.1-2.3c1.2,0,1.9,0.8,1.9,2.2v4.7h1.9v-4.7c0-1.5,0.9-2.3,2.1-2.3c1.3,0,1.9,0.8,1.9,2.2v4.7
		C63.6,17.5,65.4,17.5,65.4,17.5z M93.2,8.9h-3V6.3h-1.9v2.6h-1.7v1.7h1.7v3.9c0,2,0.8,3.2,3,3.2c0.8,0,1.6-0.2,2.3-0.7L93,15.4
		c-0.5,0.3-1.1,0.5-1.6,0.5c-0.9,0-1.2-0.6-1.2-1.4v-3.9h3L93.2,8.9L93.2,8.9z M109,8.7c-0.9,0-1.8,0.5-2.2,1.2v-1h-1.9v8.5h1.9
		v-4.8c0-1.4,0.6-2.2,1.8-2.2c0.4,0,0.8,0.1,1.2,0.2l0.6-1.7C109.9,8.8,109.5,8.7,109,8.7L109,8.7z M85,9.6c-1-0.6-2.2-0.9-3.5-0.9
		c-2.2,0-3.6,1-3.6,2.7c0,1.4,1,2.2,3,2.5l0.9,0.1c1,0.1,1.5,0.4,1.5,0.9c0,0.7-0.7,1-2,1c-1,0-2-0.3-2.9-0.9l-0.9,1.5
		c1.1,0.7,2.4,1.1,3.7,1.1c2.5,0,3.9-1.2,3.9-2.8c0-1.5-1.1-2.3-3-2.6l-0.9-0.1c-0.8-0.1-1.5-0.3-1.5-0.9c0-0.6,0.6-1,1.6-1
		c0.9,0,1.9,0.2,2.7,0.7L85,9.6z M134.8,8.7c-0.9,0-1.8,0.5-2.2,1.2v-1h-1.9v8.5h1.9v-4.8c0-1.4,0.6-2.2,1.8-2.2
		c0.4,0,0.8,0.1,1.2,0.2l0.6-1.7C135.7,8.8,135.2,8.7,134.8,8.7L134.8,8.7z M110.9,13.2c0,2.6,1.8,4.5,4.6,4.5
		c1.1,0.1,2.2-0.3,3.1-1l-0.9-1.5c-0.6,0.5-1.4,0.7-2.2,0.8c-1.5,0-2.6-1.1-2.6-2.7s1.1-2.7,2.6-2.7c0.8,0,1.6,0.3,2.2,0.8l0.9-1.5
		c-0.9-0.7-2-1.1-3.1-1C112.7,8.7,110.9,10.6,110.9,13.2L110.9,13.2z M128.3,13.2V8.9h-1.9v1c-0.6-0.8-1.6-1.3-2.7-1.2
		c-2.4,0-4.3,1.9-4.3,4.5s1.9,4.5,4.3,4.5c1,0,2.1-0.4,2.7-1.2v1h1.9V13.2z M121.3,13.2c0-1.5,1-2.7,2.6-2.7c1.5,0,2.6,1.2,2.6,2.7
		s-1,2.7-2.6,2.7C122.3,15.9,121.3,14.7,121.3,13.2z M98.9,8.7c-2.5,0-4.2,1.8-4.2,4.5c0,2.7,1.8,4.5,4.4,4.5c1.3,0,2.5-0.4,3.5-1.2
		l-0.9-1.4c-0.7,0.6-1.6,0.9-2.5,0.9c-1.2,0-2.3-0.6-2.6-2.1h6.3c0-0.2,0-0.5,0-0.7C103,10.5,101.3,8.7,98.9,8.7L98.9,8.7z
		 M98.9,10.4c1.2,0,2,0.7,2.2,2.1h-4.5C96.8,11.2,97.6,10.4,98.9,10.4z M145.5,13.2V5.5h-1.9V10C143,9.2,142,8.7,141,8.7
		c-2.4,0-4.3,1.9-4.3,4.5s1.9,4.5,4.3,4.5c1,0,2.1-0.4,2.7-1.2v1h1.9V13.2z M147.7,16.7c0.1,0,0.1,0,0.2,0c0.1,0,0.1,0.1,0.2,0.1
		c0,0,0.1,0.1,0.1,0.2c0.1,0.1,0.1,0.3,0,0.4c0,0.1-0.1,0.1-0.1,0.2c0,0-0.1,0.1-0.2,0.1c-0.1,0-0.1,0-0.2,0c-0.2,0-0.4-0.1-0.5-0.3
		c-0.1-0.1-0.1-0.3,0-0.4c0.1-0.1,0.2-0.2,0.3-0.3C147.5,16.7,147.6,16.7,147.7,16.7L147.7,16.7z M147.7,17.6c0.1,0,0.1,0,0.2,0
		c0,0,0.1,0,0.1-0.1c0.2-0.2,0.2-0.4,0-0.6c0,0-0.1-0.1-0.1-0.1c0,0-0.1,0-0.2,0s-0.1,0-0.2,0c-0.2,0.1-0.3,0.4-0.2,0.6
		c0,0,0,0.1,0.1,0.1c0,0,0.1,0.1,0.1,0.1C147.6,17.6,147.6,17.6,147.7,17.6L147.7,17.6z M147.7,17c0,0,0.1,0,0.1,0
		c0,0,0.1,0.1,0,0.1c0,0,0,0.1,0,0.1c0,0-0.1,0-0.1,0l0.2,0.2h-0.1l-0.1-0.2h0v0.2h-0.1v-0.5L147.7,17z M147.6,17.1v0.1h0.1
		c0,0,0,0,0.1,0l0,0c0,0,0,0,0,0s0,0-0.1,0L147.6,17.1L147.6,17.1z M138.6,13.2c0-1.5,1-2.7,2.6-2.7c1.5,0,2.6,1.2,2.6,2.7
		s-1,2.7-2.6,2.7C139.6,15.9,138.6,14.7,138.6,13.2z M75.9,13.2V8.9H74v1c-0.6-0.8-1.6-1.3-2.7-1.2c-2.4,0-4.3,1.9-4.3,4.5
		s1.9,4.5,4.3,4.5c1,0,2.1-0.4,2.7-1.2v1h1.9V13.2z M68.9,13.2c0-1.5,1-2.7,2.6-2.7c1.5,0,2.6,1.2,2.6,2.7s-1,2.7-2.6,2.7
		C69.9,15.9,68.9,14.7,68.9,13.2L68.9,13.2z"/>
	<g>
		<rect x="16.9" y="3.1" class="st1" width="11.2" height="20.2"/>
		<path class="st0" d="M17.6,13.1c0-3.9,1.8-7.7,4.9-10.1C17-1.3,8.9-0.4,4.5,5.2c-4.4,5.6-3.4,13.6,2.2,18c4.7,3.7,11.2,3.7,15.9,0
			C19.4,20.8,17.6,17.1,17.6,13.1z"/>
		<path class="st2" d="M43.3,13.1c0,7.1-5.7,12.8-12.8,12.8c-2.9,0-5.7-1-7.9-2.7c5.6-4.4,6.5-12.4,2.1-18c-0.6-0.8-1.4-1.5-2.1-2.1
			c5.6-4.4,13.7-3.4,18,2.2C42.3,7.5,43.3,10.3,43.3,13.1z"/>
		<path class="st3" d="M42.1,21.1v-0.4h0.2v-0.1h-0.4v0.1H42L42.1,21.1L42.1,21.1z M42.9,21.1v-0.5h-0.1L42.6,21l-0.1-0.4h-0.1v0.5
			h0.1v-0.4l0.1,0.3h0.1l0.1-0.3L42.9,21.1L42.9,21.1z"/>
	</g>
</g>
</svg>
