<?xml version="1.0" encoding="utf-8"?>
<svg viewBox="0 9.2 299.816 299.816" xmlns="http://www.w3.org/2000/svg">
  <defs>
    <linearGradient id="Grad_Logo1" x1="61" y1="117" x2="259" y2="127" gradientUnits="userSpaceOnUse" gradientTransform="matrix(1, 0, 0, 1, -55.60726, -199.051193)">
      <stop style="stop-color:#0064e1" offset="0"/>
      <stop style="stop-color:#0064e1" offset="0.4"/>
      <stop style="stop-color:#0073ee" offset="0.83"/>
      <stop style="stop-color:#0082fb" offset="1"/>
    </linearGradient>
    <linearGradient id="Grad_Logo2" x1="45" y1="139" x2="45" y2="66" gradientUnits="userSpaceOnUse" gradientTransform="matrix(1, 0, 0, 1, -55.60726, -199.051193)">
      <stop style="stop-color:#0082fb" offset="0"/>
      <stop style="stop-color:#0064e0" offset="1"/>
    </linearGradient>
  </defs>
  <ellipse style="fill: rgb(226, 224, 221);" cx="149.908" cy="159.108" rx="149.908" ry="149.908" transform="matrix(0.9999999999999999, 0, 0, 0.9999999999999999, -5.684341886080802e-14, 0)"/>
  <g transform="matrix(0.7648140192031859, 0, 0, 0.7648140192031859, 82.56481170654291, 238.3972473144531)" style="">
    <g>
      <path id="Logo0" style="fill:#0081fb" d="M -24.548 -73.091 C -24.548 -62.111 -22.138 -53.681 -18.988 -48.581 C -14.858 -41.901 -8.698 -39.071 -2.418 -39.071 C 5.682 -39.071 13.092 -41.081 27.372 -60.831 C 38.812 -76.661 52.292 -98.881 61.362 -112.811 L 76.722 -136.411 C 87.392 -152.801 99.742 -171.021 113.902 -183.371 C 125.462 -193.451 137.932 -199.051 150.482 -199.051 C 171.552 -199.051 191.622 -186.841 206.982 -163.941 C 223.792 -138.861 231.952 -107.271 231.952 -74.671 C 231.952 -55.291 228.132 -41.051 221.632 -29.801 C 215.352 -18.921 203.112 -8.051 182.522 -8.051 L 182.522 -39.071 C 200.152 -39.071 204.552 -55.271 204.552 -73.811 C 204.552 -100.231 198.392 -129.551 184.822 -150.501 C 175.192 -165.361 162.712 -174.441 148.982 -174.441 C 134.132 -174.441 122.182 -163.241 108.752 -143.271 C 101.612 -132.661 94.282 -119.731 86.052 -105.141 L 76.992 -89.091 C 58.792 -56.821 54.182 -49.471 45.082 -37.341 C 29.132 -16.101 15.512 -8.051 -2.418 -8.051 C -23.688 -8.051 -37.138 -17.261 -45.468 -31.141 C -52.268 -42.451 -55.608 -57.291 -55.608 -74.201 L -24.548 -73.091 Z"/>
      <path id="Logo1" style="fill:url(#Grad_Logo1)" d="M -31.118 -161.751 C -16.878 -183.701 3.672 -199.051 27.242 -199.051 C 40.892 -199.051 54.462 -195.011 68.632 -183.441 C 84.132 -170.791 100.652 -149.961 121.262 -115.631 L 128.652 -103.311 C 146.492 -73.591 156.642 -58.301 162.582 -51.091 C 170.222 -41.831 175.572 -39.071 182.522 -39.071 C 200.152 -39.071 204.552 -55.271 204.552 -73.811 L 231.952 -74.671 C 231.952 -55.291 228.132 -41.051 221.632 -29.801 C 215.352 -18.921 203.112 -8.051 182.522 -8.051 C 169.722 -8.051 158.382 -10.831 145.842 -22.661 C 136.202 -31.741 124.932 -47.871 116.262 -62.371 L 90.472 -105.451 C 77.532 -127.071 65.662 -143.191 58.792 -150.491 C 51.402 -158.341 41.902 -167.821 26.742 -167.821 C 14.472 -167.821 4.052 -159.211 -4.668 -146.041 L -31.118 -161.751 Z"/>
    </g>
    <path id="Logo2" style="fill:url(#Grad_Logo2)" d="M 26.742 -167.821 C 14.472 -167.821 4.052 -159.211 -4.668 -146.041 C -16.998 -127.431 -24.548 -99.711 -24.548 -73.091 C -24.548 -62.111 -22.138 -53.681 -18.988 -48.581 L -45.468 -31.141 C -52.268 -42.451 -55.608 -57.291 -55.608 -74.201 C -55.608 -104.951 -47.168 -137.001 -31.118 -161.751 C -16.878 -183.701 3.672 -199.051 27.242 -199.051 L 26.742 -167.821 Z"/>
  </g>
</svg>