<?xml version="1.0" encoding="utf-8"?>
<!-- Generator: Adobe Illustrator 25.4.1, SVG Export Plug-In . SVG Version: 6.00 Build 0)  -->
<svg version="1.1" id="Layer_1" xmlns="http://www.w3.org/2000/svg" xmlns:xlink="http://www.w3.org/1999/xlink" x="0px" y="0px"
	 viewBox="0 0 150 28.2" style="enable-background:new 0 0 150 28.2;" xml:space="preserve">
<style type="text/css">
	.st0{fill:#9C9BC5;}
</style>
<g>
	<path class="st0" d="M14.6,0.2c0.7,0.2,1.5,0.4,2.1,0.7c0.6,0.4,1.3,0.8,1.9,1.3c0.2,0.2,0.4,0.2,0.6,0.2c3.8-0.6,7.4,2,8,5.8
		c0.2,1,0.1,1.9-0.2,2.8c-0.1,0.3,0,0.6,0.2,0.8c2.4,3,1.9,7.4-1.1,9.8c-0.7,0.6-1.5,1.1-2.5,1.3c-0.3,0.1-0.6,0.3-0.6,0.6
		c-1.5,3.6-5.6,5.3-9.1,3.9c-0.8-0.3-1.6-0.8-2.3-1.5c-0.2-0.2-0.6-0.3-0.9-0.3c-3.8,0.6-7.4-2.1-7.9-6C2.7,18.8,2.8,17.9,3,17
		c0.1-0.2,0-0.5-0.2-0.7C0.4,13.2,0.9,8.8,4,6.4c0.7-0.6,1.6-1.1,2.5-1.3c0.3,0,0.5-0.2,0.6-0.4c0.9-2.3,3-4,5.5-4.4
		c0,0,0.1-0.1,0.2-0.1C12.8,0.2,14.6,0.2,14.6,0.2z M6.6,7.1C6.4,7.2,6.2,7.3,6,7.3c-2.5,1.3-3.6,4.4-2.3,6.9c0.4,0.8,1.1,1.5,1.9,2
		c1.8,1.1,3.7,2.2,5.6,3.2c0.2,0.1,0.3,0.1,0.5,0c0.7-0.4,1.4-0.8,2.1-1.2c-0.2-0.2-0.4-0.2-0.6-0.3c-1.9-1.1-4-2.3-5.9-3.4
		c-0.4-0.2-0.7-0.6-0.6-1.1c0-1.3,0-2.6,0-3.9C6.6,8.7,6.6,8,6.6,7.1z M23.6,21c0.1,0,0.2,0,0.2,0c0.1,0,0.2-0.1,0.3-0.2
		c1.7-0.8,2.8-2.4,2.9-4.3c0.2-1.9-0.7-3.7-2.4-4.7c-1.8-1.1-3.6-2.1-5.5-3.2c-0.2-0.1-0.3-0.2-0.5-0.1c-0.7,0.4-1.5,0.8-2.3,1.3
		c2.2,1.3,4.3,2.5,6.5,3.7c0.6,0.2,0.8,0.8,0.8,1.4c0,1.5,0,3.1,0,4.6V21z M10.8,15.1c0-0.3,0-0.5,0-0.7c0-2.3,0-4.5,0-6.8
		c0-0.5,0.2-1,0.7-1.2C12.8,5.7,14,5,15.3,4.3c0.6-0.3,1.1-0.6,1.9-1.1c-0.1-0.1-0.2-0.1-0.3-0.2c-1.5-1.1-3.4-1.4-5.1-0.6
		c-1.8,0.6-3,2.2-3.2,4c-0.2,2.3-0.1,4.6-0.1,6.9c0,0.2,0.1,0.3,0.2,0.4C9.3,14.2,10,14.6,10.8,15.1z M4.8,17.9
		c-0.3,1.9,0.5,4,2.1,5.1c1.6,1.2,3.7,1.4,5.5,0.4c1.9-1,3.7-2.1,5.5-3.2c0.2-0.1,0.2-0.2,0.3-0.4c0-0.8,0-1.6,0-2.4
		c-0.2,0.2-0.5,0.2-0.6,0.3c-1.9,1.1-4,2.3-5.9,3.4c-0.5,0.3-1.1,0.3-1.5,0c-1.4-0.8-2.8-1.6-4.2-2.4C5.6,18.4,5.2,18.2,4.8,17.9z
		 M25.6,10.3c0.3-2-0.5-4-2.2-5.1C21.8,4,19.6,4,17.9,4.9C16,5.9,14.2,7,12.5,8c-0.2,0.1-0.3,0.2-0.3,0.3c0,0.8,0,1.7,0,2.6
		c0.3-0.2,0.5-0.2,0.6-0.3c1.9-1.1,3.8-2.2,5.7-3.3c0.6-0.4,1.3-0.4,1.9,0c1.5,1,3.1,1.8,4.6,2.7C25.1,10.1,25.2,10.2,25.6,10.3z
		 M13.3,25c0.1,0.1,0.2,0.2,0.3,0.2c1.5,1.1,3.6,1.3,5.3,0.5c1.8-0.7,2.9-2.4,3-4.3c0.1-2.2,0-4.4,0-6.5c0-0.2-0.1-0.3-0.2-0.4
		c-0.7-0.4-1.4-0.8-2.2-1.3v0.7c0,1.9-0.1,4,0,5.9c0.2,1.1-0.4,2.1-1.5,2.5C16.4,23,14.9,24,13.3,25z M12,14
		c-0.1,1.2,0.6,2.3,1.6,2.7c0.9,0.6,2.2,0.6,3.1,0c1.1-0.5,1.7-1.5,1.5-2.7c0.1-1.1-0.5-2.1-1.5-2.6c-1-0.7-2.3-0.7-3.2-0.1
		C12.5,11.9,11.9,12.9,12,14z"/>
	<path class="st0" d="M48.1,0.2c0.6,0.2,1.3,0.2,1.9,0.4c3.6,0.9,6.2,4,6.5,7.8c0.3,2.4,0.2,4.8-0.2,7.2c-0.6,4.1-4.1,7.2-8.3,7.3
		c-1.8,0.2-3.5,0-5.2-0.6c-2.9-1-5-3.4-5.5-6.4c-0.5-2.7-0.5-5.6,0-8.4C38,3.6,41.1,0.7,45,0.4c0.2,0,0.3-0.1,0.5-0.1L48.1,0.2z
		 M41.1,11.5L41.1,11.5c0.1,1,0,1.9,0.1,2.9c0.2,2.1,1.1,4,3.2,4.7c0.9,0.3,1.9,0.5,2.8,0.4c2.7,0,4.8-1.6,5.1-4.3
		c0.2-2.3,0.3-4.5,0.2-6.7c-0.1-3-1.9-4.8-4.8-5.1c-3.2-0.3-5.7,1.1-6.2,4.6C41.1,9.2,41.1,10.4,41.1,11.5z"/>
	<path class="st0" d="M148.7,22.4c-0.2,0-0.3,0.1-0.5,0.1c-4.2,0-8.3,0-12.5,0c-0.1,0-0.2,0-0.4,0v-3h4.6V3.8h-4.6V0.7h13.4v3
		c-0.2,0-0.4,0.1-0.6,0.1c-1.1,0-2.3,0-3.5,0c-0.2,0-0.4,0-0.6,0v15.6h4.7V22.4z"/>
	<path class="st0" d="M63.9,20.4V28h-3.8V6.5h3.6v2.3c0.1,0,0.2,0,0.2-0.1c1.6-2.5,4-3,6.8-2.4c2.6,0.5,4.5,2.6,4.8,5.2
		c0.4,2.2,0.4,4.4-0.1,6.5c-1.1,4.8-6.5,5.8-9.5,4.1C65.1,21.6,64.4,21,63.9,20.4z M63.9,16.3c0.1,1.9,1.6,3.3,3.5,3.5
		c2.2,0.2,3.8-0.9,4.1-2.9c0.2-1.5,0.2-2.8,0.1-4.3c0-1.9-1.5-3.4-3.4-3.5c-1.9-0.3-3.8,1-4.2,2.9c-0.2,0.8-0.2,1.6-0.2,2.4"/>
	<path class="st0" d="M132.9,22.5c-1.3,0-2.4,0-3.6,0c-0.2,0-0.4-0.2-0.5-0.4c-0.4-1.2-0.8-2.5-1.2-3.8c0-0.3-0.3-0.5-0.6-0.5l0,0
		c-2.7,0-5.4,0-8.1,0c-0.3-0.1-0.6,0.2-0.6,0.4l0,0c-0.4,1.3-0.8,2.6-1.2,3.8c-0.1,0.2-0.2,0.3-0.4,0.4c-1.1,0-2.3,0-3.6,0
		c0.1-0.2,0.2-0.4,0.2-0.6c2.5-6.9,4.9-13.8,7.4-20.7c0.2-0.3,0.2-0.5,0.6-0.5c1.1,0,2.2,0,3.3,0c0.2-0.1,0.5,0.2,0.6,0.4
		c2.5,7,5,14,7.6,21C132.8,22.1,132.8,22.3,132.9,22.5z M119.4,14.7h7c-1.1-3.6-2.3-7.2-3.4-10.7h-0.2
		C121.7,7.5,120.6,11.1,119.4,14.7z"/>
	<path class="st0" d="M99.6,22.4h-3.9V6.5h3.6V9c0.1-0.1,0.2-0.2,0.2-0.4c0.6-1.3,1.9-2.3,3.3-2.4c1.6-0.4,3.4-0.1,4.8,0.8
		c1.4,0.9,2.2,2.4,2.3,4s0.1,3.3,0.1,5c0,2.1,0,4.2,0,6.4h-3.9c0-0.2,0-0.4,0-0.6c0-2.8,0-5.7,0-8.6c0-0.2,0-0.4,0-0.6
		c-0.1-2.7-2.3-4.1-4.8-3.2c-1.3,0.5-2,1.8-1.9,3.2c0,3,0,6,0,9C99.6,22,99.6,22.1,99.6,22.4z"/>
	<path class="st0" d="M89.9,18l2.3,1.4c-0.5,0.9-1.1,1.6-1.9,2.2c-1.6,1.1-3.6,1.5-5.6,1.3c-0.6-0.1-1.2-0.2-1.8-0.3
		c-2.7-0.7-4.8-3.2-4.8-6.1c-0.1-1.7,0-3.5,0.2-5.2c0.5-2.8,2.9-4.9,5.8-5.1c1.1-0.1,2.3-0.1,3.4,0.2c2.8,0.5,4.9,2.9,5.1,5.8
		c0.1,1.2,0,2.3,0,3.6H82.1c-0.5,2.9,1.4,4.7,4,4.4C87.6,20,88.6,19.5,89.9,18z M82,13.1h7.4c0-1.5-0.1-2.9-1.5-3.8
		c-1.2-0.9-2.8-1-4.1-0.2C82.2,9.9,82,11.5,82,13.1L82,13.1z"/>
</g>
</svg>
