<?xml version="1.0" encoding="utf-8"?>
<!-- Generator: Adobe Illustrator 25.4.1, SVG Export Plug-In . SVG Version: 6.00 Build 0)  -->
<svg version="1.1" id="Layer_1" xmlns="http://www.w3.org/2000/svg" xmlns:xlink="http://www.w3.org/1999/xlink" x="0px" y="0px"
	 viewBox="0 0 150 36.4" style="enable-background:new 0 0 150 36.4;" xml:space="preserve">
<style type="text/css">
	.st0{fill-rule:evenodd;clip-rule:evenodd;fill:#9C9BC5;}
	.st1{fill-rule:evenodd;clip-rule:evenodd;fill:#BABAE2;}
	.st2{fill-rule:evenodd;clip-rule:evenodd;fill:#A7A7D3;}
</style>
<g id="Clip-6">
</g>
<g>
	<path id="Fill-1" class="st0" d="M113.3,16.1c-0.4,2.8-2.5,2.8-4.6,2.8h-1.2l0.8-5.2c0.1-0.3,0.3-0.5,0.6-0.5h0.5
		c1.4,0,2.7,0,3.4,0.8C113.3,14.4,113.4,15.1,113.3,16.1L113.3,16.1z M112.4,8.8h-7.8c-0.5,0-1,0.4-1.1,0.9l-3.2,20
		c-0.1,0.4,0.2,0.7,0.6,0.7h4c0.3,0,0.7-0.3,0.7-0.6l0.9-5.7c0.1-0.5,0.5-0.9,1.1-0.9h2.5c5.1,0,8.1-2.5,8.8-7.4c0.3-2.1,0-3.9-1-5
		C116.9,9.5,115,8.8,112.4,8.8L112.4,8.8z"/>
	<path id="Fill-2" class="st0" d="M57.8,16.1c-0.4,2.8-2.5,2.8-4.6,2.8H52l0.8-5.2c0.1-0.3,0.3-0.5,0.6-0.5H54c1.4,0,2.7,0,3.4,0.8
		C57.8,14.4,57.9,15.1,57.8,16.1L57.8,16.1z M56.9,8.8h-7.8c-0.5,0-1,0.4-1.1,0.9l-3.2,20c-0.1,0.4,0.2,0.7,0.6,0.7h3.7
		c0.5,0,1-0.4,1.1-0.9l0.9-5.4c0.1-0.5,0.5-0.9,1.1-0.9h2.5c5.1,0,8.1-2.5,8.8-7.4c0.3-2.1,0-3.9-1-5C61.5,9.5,59.5,8.8,56.9,8.8
		L56.9,8.8z"/>
	<path id="Fill-3" class="st0" d="M75,23.2c-0.3,2.1-2.1,3.6-4.2,3.6c-1.1,0-2-0.3-2.5-1c-0.6-0.6-0.7-1.6-0.6-2.6
		c0.3-2.1,2.1-3.6,4.2-3.6c1,0,1.9,0.3,2.5,1C74.9,21.3,75.1,22.2,75,23.2L75,23.2z M80.1,16h-3.7c-0.3,0-0.6,0.2-0.6,0.5l-0.2,1
		l-0.3-0.4c-0.8-1.2-2.6-1.6-4.4-1.6c-4.1,0-7.6,3.1-8.3,7.5c-0.3,2.2,0.2,4.3,1.4,5.7c1.2,1.3,2.8,1.9,4.7,1.9
		c3.3,0,5.1-2.1,5.1-2.1l-0.2,1c-0.1,0.4,0.2,0.7,0.6,0.7h3.3c0.5,0,1-0.4,1.1-0.9l2-12.7C80.8,16.4,80.6,16,80.1,16L80.1,16z"/>
	<path id="Fill-4" class="st0" d="M130.4,23.2c-0.3,2.1-2.1,3.6-4.2,3.6c-1.1,0-2-0.3-2.5-1c-0.6-0.6-0.7-1.6-0.6-2.6
		c0.3-2.1,2.1-3.6,4.2-3.6c1,0,1.9,0.3,2.5,1C130.4,21.3,130.6,22.2,130.4,23.2L130.4,23.2z M135.6,16h-3.7c-0.3,0-0.6,0.2-0.6,0.5
		l-0.2,1l-0.3-0.4c-0.8-1.2-2.6-1.6-4.4-1.6c-4.1,0-7.6,3.1-8.3,7.5c-0.3,2.2,0.2,4.3,1.4,5.7c1.2,1.3,2.8,1.9,4.7,1.9
		c3.3,0,5.1-2.1,5.1-2.1l-0.2,1c-0.1,0.4,0.2,0.7,0.6,0.7h3.3c0.5,0,1-0.4,1.1-0.9l2-12.7C136.3,16.4,136,16,135.6,16L135.6,16z"/>
	<path id="Fill-5" class="st0" d="M100,16h-3.7c-0.3,0-0.7,0.2-0.9,0.5l-5.2,7.6L88,16.8c-0.1-0.5-0.6-0.7-1-0.7h-3.7
		c-0.5,0-0.7,0.5-0.6,0.9L86.7,29l-3.9,5.5c-0.3,0.4,0,1,0.5,1h3.7c0.3,0,0.7-0.2,0.9-0.5l12.5-18C100.8,16.6,100.5,16,100,16"/>
	<path id="Fill-7" class="st0" d="M140,9.4l-3.2,20.3c-0.1,0.4,0.2,0.7,0.6,0.7h3.2c0.5,0,1-0.4,1.1-0.9l3.2-20
		c0.1-0.4-0.2-0.7-0.6-0.7h-3.6C140.3,8.8,140.1,9,140,9.4"/>
	<path id="Fill-8" class="st1" d="M18.1,34.1l1-6.6l0.1-0.3c0.1-0.3,0.2-0.6,0.5-0.8c0.2-0.2,0.6-0.3,0.9-0.3h0.8
		c1.4,0,2.7-0.2,3.8-0.5c1.2-0.3,2.2-0.8,3.2-1.4c1-0.7,1.8-1.6,2.4-2.6c0.7-1.1,1.2-2.5,1.4-4c0.3-1.3,0.3-2.5,0.2-3.6
		c-0.2-1.1-0.6-2-1.3-2.8c-0.4-0.5-0.9-0.9-1.5-1.2l0,0l0,0c0.2-1.3,0.2-2.5,0-3.5c-0.2-1-0.7-1.8-1.4-2.7C26.7,2.1,24,1.1,20,1.1
		H9.4c-0.3,0-0.7,0.2-1,0.4C8.1,1.8,7.9,2.1,7.9,2.5L3.5,30.6c-0.1,0.2,0,0.5,0.2,0.7c0.2,0.2,0.4,0.3,0.7,0.3H11v0.1l-0.5,2.9
		c-0.1,0.2,0.1,0.5,0.2,0.6c0.2,0.2,0.3,0.3,0.6,0.3h5.5c0.3,0,0.6-0.1,0.9-0.3c0.2-0.2,0.4-0.5,0.5-0.8V34.1"/>
	<path id="Fill-9" class="st0" d="M14.4,9.9c0.1-0.5,0.3-0.8,0.7-1c0.2-0.1,0.3-0.1,0.6-0.1h8.4c1,0,1.9,0.1,2.8,0.2
		C27.1,9,27.3,9,27.5,9.1c0.2,0.1,0.5,0.1,0.7,0.2c0.1,0.1,0.2,0.1,0.3,0.1c0.4,0.1,0.8,0.3,1.2,0.5c0.4-2.7,0-4.5-1.4-6.1
		c-1.6-1.8-4.5-2.6-8.2-2.6H9.4C8.6,1.1,8,1.6,7.9,2.4L3.4,30.6c-0.1,0.6,0.3,1,0.9,1h6.6L14.4,9.9"/>
	<path id="Fill-12" class="st2" d="M28.3,9.1C28.1,9.1,27.8,9,27.6,9c-0.2-0.1-0.5-0.1-0.7-0.1c-0.9-0.1-1.8-0.2-2.8-0.2h-8.4
		c-0.2,0-0.4,0.1-0.6,0.1c-0.4,0.2-0.7,0.6-0.7,1l-1.8,11.3l-0.1,0.3c0.1-0.7,0.7-1.3,1.5-1.3h3.1c6.2,0,11-2.5,12.4-9.8
		c0.1-0.2,0.1-0.4,0.1-0.6c-0.3-0.2-0.7-0.3-1.2-0.5C28.5,9.2,28.4,9.2,28.3,9.1"/>
</g>
</svg>
