<?xml version="1.0" encoding="utf-8"?>
<!-- Generator: Adobe Illustrator 25.4.1, SVG Export Plug-In . SVG Version: 6.00 Build 0)  -->
<svg version="1.1" id="Layer_1" xmlns="http://www.w3.org/2000/svg" xmlns:xlink="http://www.w3.org/1999/xlink" x="0px" y="0px"
	 viewBox="0 0 150 62.5" style="enable-background:new 0 0 150 62.5;" xml:space="preserve">
<style type="text/css">
	.st0{fill-rule:evenodd;clip-rule:evenodd;fill:#9C9BC5;}
</style>
<g>
	<path class="st0" d="M148.3,32.2c0-10.4-5.1-18.7-14.7-18.7c-9.7,0-15.6,8.2-15.6,18.6c0,12.3,6.9,18.5,16.9,18.5
		c4.8,0,8.5-1.1,11.3-2.6v-8.1c-2.8,1.4-5.9,2.2-10,2.2c-4,0-7.5-1.4-7.9-6.2h19.9C148.3,35.3,148.3,33.2,148.3,32.2z M128.2,28.4
		c0-4.6,2.8-6.5,5.4-6.5c2.5,0,5.1,1.9,5.1,6.5H128.2z"/>
	<path class="st0" d="M102.3,13.6c-4,0-6.6,1.9-8,3.2l-0.5-2.5h-9v47.5L95,59.6l0-11.5c1.5,1.1,3.6,2.6,7.2,2.6
		c7.3,0,13.9-5.9,13.9-18.8C116.2,20,109.5,13.6,102.3,13.6z M99.9,41.7c-2.4,0-3.8-0.9-4.8-1.9l0-15.1c1.1-1.2,2.5-2,4.8-2
		c3.7,0,6.3,4.2,6.3,9.5C106.2,37.6,103.6,41.7,99.9,41.7z"/>
	<polygon class="st0" points="70.8,11.2 81.1,9 81.1,0.7 70.8,2.9 	"/>
	<rect x="70.8" y="14.3" class="st0" width="10.2" height="35.7"/>
	<path class="st0" d="M59.9,17.3l-0.7-3h-8.8v35.7h10.2V25.8c2.4-3.1,6.5-2.6,7.7-2.1v-9.4C67.1,13.8,62.3,12.9,59.9,17.3z"/>
	<path class="st0" d="M39.5,5.4l-9.9,2.1l0,32.6c0,6,4.5,10.5,10.6,10.5c3.3,0,5.8-0.6,7.1-1.3V41c-1.3,0.5-7.7,2.4-7.7-3.6V23h7.7
		v-8.7h-7.7L39.5,5.4z"/>
	<path class="st0" d="M12,24.6c0-1.6,1.3-2.2,3.5-2.2c3.1,0,7,0.9,10.1,2.6v-9.6c-3.4-1.3-6.7-1.9-10.1-1.9
		c-8.3,0-13.8,4.3-13.8,11.5c0,11.2,15.5,9.5,15.5,14.3c0,1.9-1.6,2.5-3.9,2.5c-3.4,0-7.7-1.4-11.1-3.3v9.7
		c3.8,1.6,7.6,2.3,11.1,2.3c8.5,0,14.3-4.2,14.3-11.5C27.5,27,12,29.2,12,24.6z"/>
</g>
</svg>
