<?xml version="1.0" encoding="utf-8"?>
<svg viewBox="0 9.2 299.816 299.816" xmlns="http://www.w3.org/2000/svg">
  <ellipse style="fill: rgb(232, 33, 39);" cx="149.908" cy="159.108" rx="149.908" ry="149.908"/>
  <g fill="#e82127" transform="matrix(0.896727979183197, 0, 0, 0.896727979183197, 295.2376403808594, 4.6509108543396)" style="">
    <path d="M -161.952 302.317 L -133.087 139.974 C -105.572 139.974 -96.894 142.991 -95.64 155.306 C -95.64 155.306 -77.183 148.424 -67.874 134.447 C -104.201 117.613 -140.702 116.854 -140.702 116.854 L -162 142.796 L -161.952 142.792 L -183.251 116.85 C -183.251 116.85 -219.752 117.61 -256.075 134.443 C -246.774 148.421 -228.309 155.303 -228.309 155.303 C -227.049 142.987 -218.381 139.97 -191.051 139.95 L -161.952 302.317" style="fill: rgb(255, 255, 255);"/>
    <path d="M -161.964 109.361 C -132.598 109.136 -98.986 113.904 -64.578 128.901 C -59.979 120.623 -58.797 116.965 -58.797 116.965 C -96.41 102.083 -131.635 96.991 -161.968 96.863 C -192.299 96.991 -227.522 102.084 -265.131 116.965 C -265.131 116.965 -263.453 121.471 -259.354 128.901 C -224.952 113.904 -191.334 109.136 -161.968 109.361 L -161.964 109.361" style="fill: rgb(255, 255, 255);"/>
  </g>
</svg>