<?xml version="1.0" encoding="utf-8"?>
<!-- Generator: Adobe Illustrator 25.4.1, SVG Export Plug-In . SVG Version: 6.00 Build 0)  -->
<svg version="1.1"
	 id="Layer_1" xmlns:cc="http://creativecommons.org/ns#" xmlns:dc="http://purl.org/dc/elements/1.1/" xmlns:inkscape="http://www.inkscape.org/namespaces/inkscape" xmlns:rdf="http://www.w3.org/1999/02/22-rdf-syntax-ns#" xmlns:sodipodi="http://sodipodi.sourceforge.net/DTD/sodipodi-0.dtd" xmlns:svg="http://www.w3.org/2000/svg"
	 xmlns="http://www.w3.org/2000/svg" xmlns:xlink="http://www.w3.org/1999/xlink" x="0px" y="0px" viewBox="0 0 150 48.6"
	 style="enable-background:new 0 0 150 48.6;" xml:space="preserve">
<style type="text/css">
	.st0{fill:#9C9BC5;}
	.st1{fill:#BABAE2;}
</style>
<g>
	<polygon id="polygon9" class="st0" points="65.2,47.4 53.3,47.4 60.8,1.3 72.6,1.3 	"/>
	<path id="path11" inkscape:connector-curvature="0" class="st0" d="M108.3,2.4c-2.3-0.9-6.1-2-10.7-2c-11.7,0-20,6.3-20.1,15.3
		C77.5,22.3,83.5,26,88,28.2c4.6,2.3,6.2,3.7,6.2,5.7c0,3.1-3.7,4.5-7.1,4.5c-4.7,0-7.3-0.7-11.2-2.5l-1.6-0.7l-1.7,10.4
		c2.8,1.3,7.9,2.4,13.3,2.5c12.5,0,20.6-6.2,20.7-15.8c0-5.3-3.1-9.3-10-12.6c-4.2-2.1-6.7-3.5-6.7-5.7c0-2,2.2-4,6.9-4
		c3.9-0.1,6.7,0.8,8.8,1.8l1.1,0.5L108.3,2.4L108.3,2.4z"/>
	<path id="path13" inkscape:connector-curvature="0" class="st0" d="M124.1,31.1c1-2.7,4.7-12.9,4.7-12.9c0,0.1,1-2.7,1.6-4.4l0.8,4
		c0,0,2.2,11.1,2.7,13.4C132.1,31.1,126.5,31.1,124.1,31.1L124.1,31.1z M138.8,1.3h-9.2c-2.8,0-5,0.8-6.2,3.8l-17.7,42.3h12.5
		c0,0,2.1-5.7,2.5-6.9c1.4,0,13.5,0,15.3,0c0.3,1.6,1.4,6.9,1.4,6.9h11L138.8,1.3L138.8,1.3L138.8,1.3z"/>
	<path id="path15" inkscape:connector-curvature="0" class="st0" d="M43.4,1.3L31.8,32.7l-1.3-6.4C28.3,19,21.6,11,14.1,7l10.7,40.4
		h12.6L56,1.3L43.4,1.3L43.4,1.3L43.4,1.3z"/>
	<path id="path17" inkscape:connector-curvature="0" class="st1" d="M21,1.3H1.8L1.6,2.2C16.5,6,26.4,15.3,30.5,26.4L26.3,5.1
		C25.6,2.2,23.5,1.4,21,1.3L21,1.3z"/>
</g>
</svg>
