<svg xmlns="http://www.w3.org/2000/svg" viewBox="0 0 145.8 143.88"><g id="Layer_2" data-name="Layer 2"><g id="Layer_1-2" data-name="Layer 1"><path d="M32.81,65s0,.09,0,.12a46.57,46.57,0,0,0,0,21.18s0,0,0,.06a46,46,0,0,0,89.53,0s0-.06,0-.06a46.2,46.2,0,0,0,0-21.18s0-.09,0-.12a46,46,0,0,0-89.53,0Zm64.92-1.73H57.38c2.77-16.63,10.88-29.05,20.19-29.05S95,46.61,97.73,63.24ZM119,75.65a41.48,41.48,0,0,1-.74,7.86H102.94a78.24,78.24,0,0,0,.37-7.86c0-2.65-.14-5.3-.37-7.86h15.35A41.72,41.72,0,0,1,119,75.65Zm-20.27,0a77.73,77.73,0,0,1-.4,7.86H56.79a77.42,77.42,0,0,1,0-15.72H98.36A77.73,77.73,0,0,1,98.76,75.65ZM77.57,117.11c-9.28,0-17.4-12.41-20.19-29H97.73C95,104.7,86.86,117.11,77.57,117.11ZM36.11,75.65a42.4,42.4,0,0,1,.74-7.86H52.2c-.25,2.56-.37,5.21-.37,7.86s.14,5.3.37,7.86H36.85A42.08,42.08,0,0,1,36.11,75.65ZM63.93,36.5a37,37,0,0,0-5,7.17,61,61,0,0,0-6.21,19.57H38A41.54,41.54,0,0,1,63.93,36.5ZM38,88.07H52.77A61.64,61.64,0,0,0,59,107.63a37,37,0,0,0,5,7.17A41.6,41.6,0,0,1,38,88.07ZM91.21,114.8a36.59,36.59,0,0,0,5-7.17,61.14,61.14,0,0,0,6.21-19.56h14.77A41.71,41.71,0,0,1,91.21,114.8Zm25.92-51.56H102.38a62,62,0,0,0-6.21-19.57,36.59,36.59,0,0,0-5-7.17A41.7,41.7,0,0,1,117.13,63.24ZM145.8,75.65A68.22,68.22,0,0,1,30.16,124.71,67.78,67.78,0,0,1,9.63,81.83l-5.55,7a2.28,2.28,0,0,1-1.8.86A2.42,2.42,0,0,1,.86,89.2,2.25,2.25,0,0,1,.49,86L9.83,74.25a2.3,2.3,0,0,1,1.51-.85,2.36,2.36,0,0,1,1.68.48L24.78,83.2A2.27,2.27,0,0,1,22,86.76l-7.89-6.27A63.68,63.68,0,1,0,114.33,23.65,2.27,2.27,0,0,1,117,20a68.2,68.2,0,0,1,28.85,55.7ZM10.63,62.41A68.29,68.29,0,0,1,100.3,11.3L95.74,3.41a2.27,2.27,0,1,1,3.93-2.28l7.55,13a2.29,2.29,0,0,1-.83,3.11l-13,7.52a2.47,2.47,0,0,1-1.14.31,2.21,2.21,0,0,1-2-1.14,2.28,2.28,0,0,1,.83-3.1l8.51-4.93A63.7,63.7,0,0,0,15.1,63.29a2.28,2.28,0,0,1-2.22,1.82,1.54,1.54,0,0,1-.46,0A2.25,2.25,0,0,1,10.63,62.41Z"/></g></g></svg>