<svg xmlns="http://www.w3.org/2000/svg" viewBox="0 0 120.02 146.55"><g id="Layer_2" data-name="Layer 2"><g id="Layer_1-2" data-name="Layer 1"><path d="M116.06,52.49c0,6.24-5.55,11.32-12.25,11.32a4.13,4.13,0,0,1-2.54,3V68a7.62,7.62,0,0,1-.93,3.93c-6.7,12.71-10.86,15-23.57,19-2.31.69-4.86,1.15-7.17,1.61C68,97.79,59.43,96.63,59.43,91.32c0-4.39,5.78-6.47,9-3.24,3.46-.92,6.93-1.39,10.17-2.31,9.93-3.24,10.16-4.16,16.64-14.33a5.31,5.31,0,0,0,.92-3.23V66.36a4.39,4.39,0,0,1-2.31-3.7c0-20.11-1.16-22,1.85-24.27A35.25,35.25,0,0,0,85.09,19.44a38.65,38.65,0,0,0-15.72-9C54.81,7.19,41.64,11.58,34,19c-5.09,4.62-8.78,12.25-10.17,19.41a4.39,4.39,0,0,1,1.85,3.47V62.43a4.9,4.9,0,0,1-5.09,4.62A4.53,4.53,0,0,1,16,63.58C9.28,63.35,3.73,58.5,3.73,52.26S9.28,40.93,16,40.93a4,4,0,0,1,2.31-2.77c-2.54-28,37-49.69,65.87-31.43a43.79,43.79,0,0,1,8.55,7.16,40.69,40.69,0,0,1,5.55,7.86,36,36,0,0,1,2.77,7.4,28.07,28.07,0,0,1,.7,8.78A4.51,4.51,0,0,1,104,40.7C110.74,41.16,116.06,46.25,116.06,52.49ZM48.34,98.71c-4.39-6-6.47-7.16-13.41-4.85-8.09,2.77-16.41,5.78-24.26,9-6.94,3-11.1,8.32-10.64,16.41.24,3.7,0,7.4,0,11.1,0,11.32,4.86,16.17,16.18,16.17H104.5c10.63,0,15.49-5.08,15.49-15.71,0-3.93-.24-7.63,0-11.56.46-7.86-3.47-13.17-10.17-16.18-7.86-3.46-15.95-6.47-24-9.24-6.47-2.08-10.4-.23-14.56,5.55-3.47,4.85-6.93,9.93-11.09,15.48C56,109.11,52,103.8,48.34,98.71ZM81.39,23.83C70.53,15.05,58.51,15.51,46,19.67,37.71,22.44,32.62,28.92,31.7,37c-1.85,15.49,1.85,30.05,13.4,41.37a21.64,21.64,0,0,0,30.05,0C85.32,68.9,88.32,56.65,89,47.17,89.25,36.08,87.63,28.92,81.39,23.83Z"/></g></g></svg>