<svg xmlns="http://www.w3.org/2000/svg" viewBox="0 0 116.43 146.36"><g id="Layer_2" data-name="Layer 2"><g id="Layer_1-2" data-name="Layer 1"><path d="M115.23,21.37a8.58,8.58,0,0,0-11.81-2.81l-.25.16c-7.55,5.11-22.22,15-35.6,23.57-22.51,14.47-26.71,16-27.46,16.07-2.41.33-3.21-.61-6.39-6.71A122,122,0,0,0,25.66,38a16.89,16.89,0,0,0-10.81-7.91A13.62,13.62,0,0,0,5.57,32,7.21,7.21,0,0,0,2.12,36.6a7.08,7.08,0,0,0,1,5.64c3.24,4.83,5.41,13.63,6.23,25.45C9.76,73,7.3,83,2.29,96.64A36.7,36.7,0,0,0,8.1,132.39l.48.58A36.35,36.35,0,0,0,31.91,146a34,34,0,0,0,5,.34,36.9,36.9,0,0,0,21-6.54,320.13,320.13,0,0,0,41.37-35.31l.31-.34a9,9,0,0,0-.55-12.68l-.12-.11A10.22,10.22,0,0,0,94.78,89L97,86.8a10,10,0,0,0,1-13.1,10.16,10.16,0,0,0-6.42-4,10.49,10.49,0,0,0-1-11.67,9.33,9.33,0,0,0-4.27-3L113.33,32.3A8.52,8.52,0,0,0,115.23,21.37ZM110.55,29,77.89,56.38l-.6.48-7.43,6.27a2.24,2.24,0,0,0,2.89,3.43L80.62,60a4.81,4.81,0,0,1,6.53,1,6,6,0,0,1-.6,8.18L83.39,72l-.34.32-6.32,5.88a2.25,2.25,0,0,0,2.78,3.53,3,3,0,0,0,.26-.24l6.59-6.11a5.54,5.54,0,0,1,4.1-1.25,5.63,5.63,0,0,1,4,2.27,5.56,5.56,0,0,1-.56,7.23L86.07,91.5h0l-1.74,1.74a2.24,2.24,0,0,0,0,3.16,2.28,2.28,0,0,0,3.19,0l1.76-1.76a4.62,4.62,0,0,1,6.54-.18l.19.18a4.45,4.45,0,0,1,.62,6.25c-.08.1-.17.19-.26.29l-.19.21a314.26,314.26,0,0,1-40.77,34.67,32.39,32.39,0,0,1-22.85,5.45A32,32,0,0,1,12.1,130.05l-.45-.55A32.34,32.34,0,0,1,6.53,98.14c5.31-14.33,7.79-24.68,7.36-30.74-.6-8.8-2.41-20.72-7-27.64A2.7,2.7,0,0,1,7.67,36l.14-.09a10.21,10.21,0,0,1,5-1.49c3.28,0,6.27,2,9.09,6.15a115,115,0,0,1,7.77,13.27C32.54,59.27,34.51,63,39.34,63h1.4c1.21-.17,4-.56,29.19-16.72,13.46-8.64,28.2-18.53,35.78-23.67a4.09,4.09,0,0,1,4.92,6.52Z"/><path d="M38.23,23.74a2.26,2.26,0,0,0,1.59.65,2.39,2.39,0,0,0,1.59-.65,2.24,2.24,0,0,0,0-3.16L31,10.2a2.25,2.25,0,0,0-3.16,3.19Z"/><path d="M55.29,19.13a2.24,2.24,0,0,0,2.24-2.24h0V2.24a2.25,2.25,0,0,0-4.49,0V16.89a2.24,2.24,0,0,0,2.25,2.24Z"/><path d="M70.34,24.39a2.24,2.24,0,0,0,1.59-.65L82.4,13.39a2.25,2.25,0,0,0-3.16-3.19L68.87,20.58a2.24,2.24,0,0,0,1.47,3.81Z"/></g></g></svg>