<svg xmlns="http://www.w3.org/2000/svg" viewBox="0 0 137.63 146.16"><g id="Layer_2" data-name="Layer 2"><g id="Layer_1-2" data-name="Layer 1"><path d="M82,50.92a7.79,7.79,0,0,0,.22-11,7.7,7.7,0,0,0-3.58-2.12c5.42-8.58,9.18-18.61,9.79-26.42A2.2,2.2,0,0,0,87,9.12a32.47,32.47,0,0,1-6.08-3.56C77.58,3.29,74.13,1,70.71.86h-.2c-3.5,0-6.33,2.33-8.84,4.39C59.52,7,57.49,8.69,55.54,8.63c-2.12-.05-5-2-7.83-3.92C44.37,2.44,40.92.1,37.5,0s-6.49,2.29-9,4.39c-2.06,1.69-4,3.29-5.88,3.38A2.22,2.22,0,0,0,20.47,10c.05,8,3.91,18.3,10.23,27.68a7.79,7.79,0,0,0-3.08,13.84A116.87,116.87,0,0,0,5.16,86.9c-6.19,15.6-6.83,29-1.8,37.71,4,6.85,11.22,12.49,21,16.28a84.82,84.82,0,0,0,30.37,5.26h0a84.65,84.65,0,0,0,30.34-5.25c9.76-3.8,17-9.42,21-16.29,4.43-7.69,3.73-21-1.93-36.63A114.26,114.26,0,0,0,82,50.92ZM31.27,7.82c2.11-1.74,4.12-3.39,6-3.39h.08c2.11.06,5,2,7.83,3.94C48.56,10.63,52,13,55.43,13.06h.2c3.5,0,6.33-2.33,8.85-4.38,2.11-1.74,4.12-3.39,6-3.39h.09c2.11.06,5,2,7.84,3.93a47.33,47.33,0,0,0,5.44,3.36c-1,7.56-4.92,17.07-10.33,24.94H36c-6.2-8.46-10.37-18.23-11-25.71A20.21,20.21,0,0,0,31.27,7.82Zm1,34.12H76.62a3.37,3.37,0,0,1,0,6.73H32.31a3.37,3.37,0,0,1,0-6.73Zm69.89,80.45c-6.78,11.75-25.41,19.33-47.48,19.33S14,134.13,7.19,122.4c-4.34-7.52-3.6-19.54,2.09-33.86a111.41,111.41,0,0,1,23-35.44H76.62a7.68,7.68,0,0,0,1.27-.1A108.7,108.7,0,0,1,100,89.49C105.08,103.64,105.93,116,102.2,122.39ZM48.25,88.78c0,2.9,1.29,3.42,5.28,4.29,3.5.77,8.79,1.92,8.79,8.66a8.39,8.39,0,0,1-7,8.39v2a2.21,2.21,0,0,1-4.42,0v-2a8.37,8.37,0,0,1-7-8.39,2.22,2.22,0,0,1,4.43-.12v.12a4.36,4.36,0,0,0,4.52,4.21l.3,0a4.37,4.37,0,0,0,4.8-3.89c0-.1,0-.2,0-.3,0-2.92-1.3-3.45-5.3-4.33-3.49-.76-8.77-1.91-8.77-8.62a8.36,8.36,0,0,1,7-8.38v-2a2.21,2.21,0,1,1,4.42-.12V80.4a8.37,8.37,0,0,1,7,8.38,2.22,2.22,0,1,1-4.43,0,4.36,4.36,0,0,0-4.52-4.21l-.3,0a4.37,4.37,0,0,0-4.8,3.9C48.26,88.59,48.25,88.69,48.25,88.78Zm4.82-23.49a30,30,0,1,0,30,30A30,30,0,0,0,53.07,65.29Zm0,55.5A25.54,25.54,0,1,1,78.6,95.25,25.54,25.54,0,0,1,53.07,120.79Zm84.34-86.74a2.21,2.21,0,0,0-2-1.26h-9.73V5a2.22,2.22,0,0,0-2.22-2.21H99.57A2.21,2.21,0,0,0,97.36,5V32.79H87.62a2.22,2.22,0,0,0-1.73,3.6l23.9,30a2.21,2.21,0,0,0,3.11.36,2.38,2.38,0,0,0,.35-.36l23.9-30a2.21,2.21,0,0,0,.26-2.34Zm-25.88,27.4L92.22,37.22h7.35A2.21,2.21,0,0,0,101.78,35V7.23h19.48V35a2.21,2.21,0,0,0,2.21,2.21h7.35Z"/></g></g></svg>