<svg xmlns="http://www.w3.org/2000/svg" viewBox="0 0 145.08 145.08"><g id="Layer_2" data-name="Layer 2"><g id="Layer_1-2" data-name="Layer 1"><path d="M120.9,82.21H106.39V77.38H120.9c10.64,0,19.34-8.23,19.34-18.14s-8.7-18.13-19.34-18.13H118l-1-1.45a13.31,13.31,0,0,0-12.09-8.23,13.14,13.14,0,0,0-5.08,1.21l-3.62,1.7L96.48,30v-.72a24.18,24.18,0,0,0-48.36,0v6L44,31a12.51,12.51,0,0,0-9.19-4.11c-6.77,0-12.33,5.56-13.3,12.82l.24,1.45-1.69.24c-9,1.93-15.23,9.43-15.23,17.89,0,9.91,8.7,18.14,19.34,18.14H38.69v4.83H24.18C10.88,82.21,0,71.81,0,59.24c0-10.15,7.25-19.1,17.41-22,1.69-9,9-15.48,17.65-15.48A19.07,19.07,0,0,1,44,24.18,28.86,28.86,0,0,1,72.54,0a29.25,29.25,0,0,1,29,27.08,18.73,18.73,0,0,1,3.62-.48,17.68,17.68,0,0,1,15.72,9.67h0c13.3,0,24.18,10.4,24.18,23S134.2,82.21,120.9,82.21Z"/><path d="M96.72,53.2H48.36A4.85,4.85,0,0,0,43.52,58v82.21a4.86,4.86,0,0,0,4.84,4.84H96.72a4.86,4.86,0,0,0,4.84-4.84V58A4.85,4.85,0,0,0,96.72,53.2Zm-24.18,87a4.84,4.84,0,1,1,4.84-4.83A4.85,4.85,0,0,1,72.54,140.24Zm24.18-14.5H48.36V62.87H96.72Z"/><path d="M72.54,75C66,79.79,59.72,81.49,53.2,79.79c0,25.15,19.34,33.86,19.34,33.86s19.34-8.71,19.34-33.86C85.36,81.49,79.79,79.79,72.54,75Z"/></g></g></svg>