<svg xmlns="http://www.w3.org/2000/svg" viewBox="0 0 60 60"><g id="Layer_2" data-name="Layer 2"><g id="Layer_1-2" data-name="Layer 1"><path d="M1,30.29H6.3a1,1,0,0,0,1-1A22,22,0,0,1,46.52,15.64l-2.37,2.63a1,1,0,0,0-.22.95,1,1,0,0,0,.69.68l14.11,3.91a1,1,0,0,0,1-.29,1,1,0,0,0,.19-1L54.6,8.85a1,1,0,0,0-1.68-.3l-1.46,1.62A29.28,29.28,0,0,0,0,29.29,1,1,0,0,0,1,30.29ZM29.29,2A27.12,27.12,0,0,1,50.64,12.32a1,1,0,0,0,1.53,0l1.15-1.28,4,10.26-10.62-3,1.85-2a1,1,0,0,0,.06-1.26A24,24,0,0,0,5.32,28.28H2A27.32,27.32,0,0,1,29.29,2Z"/><path d="M59,29.71H53.7a1,1,0,0,0-1,1A22,22,0,0,1,13.48,44.36l2.37-2.63a1,1,0,0,0,.22-.95,1,1,0,0,0-.69-.68L1.27,36.18a1,1,0,0,0-1,.29,1,1,0,0,0-.19,1L5.4,51.14a1,1,0,0,0,1.68.31l1.46-1.62A29.28,29.28,0,0,0,60,30.71,1,1,0,0,0,59,29.71ZM30.71,58h0A27.12,27.12,0,0,1,9.36,47.68a1,1,0,0,0-.76-.38h0a1,1,0,0,0-.74.33L6.68,48.91l-4-10.27,10.62,3-1.85,2a1,1,0,0,0-.06,1.26A24,24,0,0,0,54.68,31.71H58A27.32,27.32,0,0,1,30.71,58Z"/><path d="M30,15A15,15,0,1,0,45,30,15,15,0,0,0,30,15Zm0,28A13,13,0,1,1,43,30,13,13,0,0,1,30,43Z"/><path d="M30,24a2.5,2.5,0,0,1,2.5,2.5,1,1,0,0,0,2,0A4.5,4.5,0,0,0,31,22.12V20.74a1,1,0,1,0-2,0v1.38A4.5,4.5,0,0,0,30,31a2.5,2.5,0,1,1-2.5,2.5,1,1,0,0,0-2,0A4.5,4.5,0,0,0,29,37.88v1.38a1,1,0,0,0,2,0V37.88A4.5,4.5,0,0,0,30,29a2.5,2.5,0,0,1,0-5Z"/></g></g></svg>