<svg xmlns="http://www.w3.org/2000/svg" viewBox="0 0 200 29.84"><defs><style>.cls-1{fill:#e5c775;}</style></defs><g id="Layer_2" data-name="Layer 2"><g id="Layer_1-2" data-name="Layer 1"><path class="cls-1" d="M44.76,22.76V7.08h9.53a7,7,0,0,1,4.34,1.14,3.73,3.73,0,0,1,1.48,3.13,2.71,2.71,0,0,1-.67,1.81,3.7,3.7,0,0,1-1.69,1.12,6.19,6.19,0,0,1,1.15.48,3.27,3.27,0,0,1,.93.76,3.3,3.3,0,0,1,.63,1.08,4.15,4.15,0,0,1,.23,1.48,4,4,0,0,1-1.77,3.41,9.49,9.49,0,0,1-5.45,1.27Zm3.9-13v3.4h5.1c1.63,0,2.45-.57,2.45-1.7a1.43,1.43,0,0,0-.63-1.3,3.93,3.93,0,0,0-2-.4Zm5.13,10.3A3.44,3.44,0,0,0,56,19.45a2,2,0,0,0,.78-1.61A1.65,1.65,0,0,0,56,16.33a4.14,4.14,0,0,0-2.14-.47H48.66v4.23Z"/><path class="cls-1" d="M65,17.75a3,3,0,0,0,1,2.1,3.23,3.23,0,0,0,2.26.78,3.7,3.7,0,0,0,1.64-.34,1.66,1.66,0,0,0,.92-1h3.9a5.14,5.14,0,0,1-2.33,2.76,7.65,7.65,0,0,1-4,1q-7.15,0-7.16-6.33a6.16,6.16,0,0,1,.46-2.43,5.09,5.09,0,0,1,1.36-1.86,6.07,6.07,0,0,1,2.17-1.2,9.71,9.71,0,0,1,2.94-.41,6.75,6.75,0,0,1,5,1.72,7.1,7.1,0,0,1,1.71,5.2Zm6-1.94a2.8,2.8,0,0,0-.27-1.12,2.46,2.46,0,0,0-.66-.8,2.72,2.72,0,0,0-.93-.47,3.58,3.58,0,0,0-1.08-.16,3,3,0,0,0-2,.68,2.59,2.59,0,0,0-.95,1.87Z"/><path class="cls-1" d="M85.39,22.76v-7a2.33,2.33,0,0,0-.55-1.82A3,3,0,0,0,83,13.43c-2,0-3,.89-3,2.67v6.66H76.22V11.14h3.61v1.7a4.27,4.27,0,0,1,1.78-1.5,6.79,6.79,0,0,1,2.85-.51,6.7,6.7,0,0,1,1.89.25,4.06,4.06,0,0,1,1.5.74,3.57,3.57,0,0,1,1.36,2.88v8.06Z"/><path class="cls-1" d="M99.84,22.76a3.88,3.88,0,0,1-.24-1,4.81,4.81,0,0,1-1.77,1,8.28,8.28,0,0,1-2.56.36,6,6,0,0,1-3.63-.88,2.77,2.77,0,0,1-1.15-2.31,3.53,3.53,0,0,1,.49-2,3.34,3.34,0,0,1,1.37-1.17,8.05,8.05,0,0,1,2.09-.63c.8-.13,1.68-.25,2.63-.36A6,6,0,0,0,99,15.28a.93.93,0,0,0,.5-.88,1,1,0,0,0-.66-.89,4.07,4.07,0,0,0-1.76-.32,3,3,0,0,0-1.88.47,2.1,2.1,0,0,0-.71,1.26H91a4.53,4.53,0,0,1,.37-1.66A3.24,3.24,0,0,1,92.4,12a5.38,5.38,0,0,1,1.93-.83,12.2,12.2,0,0,1,2.92-.3,11.21,11.21,0,0,1,2.86.31A5,5,0,0,1,102,12a3.36,3.36,0,0,1,1,1.44,5.47,5.47,0,0,1,.32,1.95v7.35Zm-.26-5.7a2.17,2.17,0,0,1-.85.38c-.37.1-.9.2-1.6.31a6,6,0,0,0-2.24.66,1.3,1.3,0,0,0-.61,1.16c0,.86.61,1.3,1.83,1.3a4.49,4.49,0,0,0,1.35-.2,3.66,3.66,0,0,0,1.08-.55,2.77,2.77,0,0,0,.73-.8,1.92,1.92,0,0,0,.28-1Z"/><path class="cls-1" d="M105,22.76V11.14h3.56v1.39a4.15,4.15,0,0,1,1-.92,4.52,4.52,0,0,1,2.14-.73c.37,0,.75-.05,1.14-.05h.49V14a7.41,7.41,0,0,0-1-.07q-3.47,0-3.46,2.81v6.05Z"/><path class="cls-1" d="M114.37,22.76V6.89h3.73v5.76a5.39,5.39,0,0,1,4.25-1.82,6.7,6.7,0,0,1,2.49.44,5,5,0,0,1,1.85,1.24,5.24,5.24,0,0,1,1.15,1.9,7.18,7.18,0,0,1,.4,2.42,7,7,0,0,1-.47,2.62,5.8,5.8,0,0,1-1.28,2,5.67,5.67,0,0,1-2,1.23,7.23,7.23,0,0,1-2.49.42,4.69,4.69,0,0,1-4-1.72l0,1.42Zm6.79-2.2a3,3,0,0,0,2.33-1,3.6,3.6,0,0,0,.9-2.54q0-3.58-3.26-3.59T118,17.23a3.29,3.29,0,0,0,.92,2.41A3.11,3.11,0,0,0,121.16,20.56Z"/><path class="cls-1" d="M129.72,9.74V6.89h3.79V9.74Zm0,13V11.14h3.79V22.76Z"/><path class="cls-1" d="M143.35,15.1h3.52v3.31a4.78,4.78,0,0,1-.33,1.76,4,4,0,0,1-1,1.49,5.14,5.14,0,0,1-1.8,1,7.81,7.81,0,0,1-2.61.38,8.13,8.13,0,0,1-2.68-.38,5.2,5.2,0,0,1-1.82-1,3.68,3.68,0,0,1-1-1.49,4.9,4.9,0,0,1-.33-1.79V8H139v3.14h7.92v2.17H139v4.77a2.57,2.57,0,0,0,.51,1.71,2.09,2.09,0,0,0,1.68.6,2.14,2.14,0,0,0,1.67-.59,2.38,2.38,0,0,0,.54-1.67Z"/><path class="cls-1" d="M148.42,22.76V11.14H152v1.39a4.18,4.18,0,0,1,1-.92,4.52,4.52,0,0,1,2.14-.73c.37,0,.75-.05,1.13-.05h.5V14a7.41,7.41,0,0,0-1.05-.07q-3.46,0-3.47,2.81v6.05Z"/><path class="cls-1" d="M166,22.76a3.89,3.89,0,0,1-.23-1,5,5,0,0,1-1.78,1,8.28,8.28,0,0,1-2.56.36,6,6,0,0,1-3.63-.88,2.77,2.77,0,0,1-1.15-2.31,3.53,3.53,0,0,1,.5-2,3.31,3.31,0,0,1,1.36-1.17,8.05,8.05,0,0,1,2.09-.63c.8-.13,1.68-.25,2.63-.36a6,6,0,0,0,1.92-.44.91.91,0,0,0,.5-.88,1,1,0,0,0-.66-.89,4.07,4.07,0,0,0-1.76-.32,3,3,0,0,0-1.88.47,2.15,2.15,0,0,0-.71,1.26h-3.52a4.52,4.52,0,0,1,.36-1.66A3.24,3.24,0,0,1,158.6,12a5.35,5.35,0,0,1,1.94-.83,12,12,0,0,1,2.91-.3,11.35,11.35,0,0,1,2.87.31,5,5,0,0,1,1.89.88,3.28,3.28,0,0,1,1,1.44,5.47,5.47,0,0,1,.32,1.95v7.35Zm-.26-5.7a2.17,2.17,0,0,1-.85.38c-.37.1-.9.2-1.6.31a6.11,6.11,0,0,0-2.24.66,1.3,1.3,0,0,0-.61,1.16c0,.86.61,1.3,1.83,1.3a4.56,4.56,0,0,0,1.36-.2,3.72,3.72,0,0,0,1.07-.55,2.77,2.77,0,0,0,.73-.8,1.82,1.82,0,0,0,.28-1Z"/><path class="cls-1" d="M181.21,21.2a2.71,2.71,0,0,1-1.47,1.21,6.47,6.47,0,0,1-2.46.44,7.66,7.66,0,0,1-3-.51,5.3,5.3,0,0,1-2-1.33,4.93,4.93,0,0,1-1.08-1.92,7.23,7.23,0,0,1-.34-2.21,6.06,6.06,0,0,1,.5-2.47,5.72,5.72,0,0,1,1.34-1.92,6.05,6.05,0,0,1,2-1.22,6.78,6.78,0,0,1,2.44-.44,4.73,4.73,0,0,1,4,1.75V11.14H185V22.87a4.75,4.75,0,0,1-.55,2.33,5,5,0,0,1-1.52,1.68,7.27,7.27,0,0,1-2.27,1,11.06,11.06,0,0,1-5.56,0,7,7,0,0,1-2.2-1,4.76,4.76,0,0,1-1.44-1.53,3.91,3.91,0,0,1-.53-2h3.53a1.84,1.84,0,0,0,.86,1.64,4,4,0,0,0,2.28.58,4.66,4.66,0,0,0,2.57-.67,2.09,2.09,0,0,0,1-1.83Zm-3.11-.76a3.25,3.25,0,0,0,2.31-.86,3.09,3.09,0,0,0,.92-2.35q0-3.73-3.23-3.73T174.86,17a3.36,3.36,0,0,0,.92,2.48A3.16,3.16,0,0,0,178.1,20.44Z"/><path class="cls-1" d="M190.13,17.75a3,3,0,0,0,.94,2.1,3.25,3.25,0,0,0,2.26.78,3.77,3.77,0,0,0,1.65-.34,1.64,1.64,0,0,0,.91-1h3.91a5.23,5.23,0,0,1-2.33,2.76,7.7,7.7,0,0,1-4,1q-7.17,0-7.17-6.33a6.16,6.16,0,0,1,.47-2.43,5.18,5.18,0,0,1,1.35-1.86,6.16,6.16,0,0,1,2.17-1.2,9.76,9.76,0,0,1,2.94-.41,6.77,6.77,0,0,1,5,1.72,7.14,7.14,0,0,1,1.7,5.2Zm6-1.94a2.64,2.64,0,0,0-.28-1.12,2.32,2.32,0,0,0-.65-.8,2.86,2.86,0,0,0-.94-.47,3.56,3.56,0,0,0-1.07-.16,3,3,0,0,0-2,.68,2.63,2.63,0,0,0-.95,1.87Z"/><path class="cls-1" d="M27.55,6.89a6.72,6.72,0,0,1-.4,2.29,6.68,6.68,0,0,1-1.36,2.3A6.87,6.87,0,0,1,23,13.38a6.68,6.68,0,0,1-2.29.39H2.3A2.29,2.29,0,0,1,0,11.48V6.89H4.59V9.18H20.66a2.3,2.3,0,0,0,0-4.59H0V2.3A2.3,2.3,0,0,1,2.3,0H20.66A6.92,6.92,0,0,1,23,.39a6.84,6.84,0,0,1,2.3,1.36,5.62,5.62,0,0,1,.54.55,6.63,6.63,0,0,1,1.36,2.29A6.74,6.74,0,0,1,27.55,6.89Z"/><path class="cls-1" d="M4.59,23a2.3,2.3,0,0,0,2.3,2.29H25.25V23h4.59v4.59a2.3,2.3,0,0,1-2.29,2.29H6.89a7,7,0,0,1-2.3-.39A6.79,6.79,0,0,1,2.3,28.09a7,7,0,0,1-.55-.54,6.9,6.9,0,0,1,0-9.19,7,7,0,0,1,.55-.54,6.79,6.79,0,0,1,2.29-1.36,7,7,0,0,1,2.3-.39H27.55a2.3,2.3,0,0,1,2.29,2.29v2.3H6.89A2.3,2.3,0,0,0,4.59,23Z"/></g></g></svg>