<svg xmlns="http://www.w3.org/2000/svg" viewBox="0 0 143.07 143.13"><defs><style>.cls-1{fill:#c8102e;}.cls-2{fill:#012169;}</style></defs><g id="Layer_2" data-name="Layer 2"><g id="Layer_1-2" data-name="Layer 1"><path class="cls-1" d="M2,88.1c-2.49-6-2.69-24.58-.34-31.78h56.8V1.2a71.9,71.9,0,0,1,26,0V56.23h57A71.9,71.9,0,0,1,141.17,88H84.58v53.77c-4.15,1.71-19.63,1.78-26.06.13V88.1Z"/><path class="cls-1" d="M134.19,36.64C128.86,40,112.11,49,112.11,49l-19.23,0H91.63l0-.23,35.64-22.42C129.56,29.83,131.83,33.18,134.19,36.64Z"/><path class="cls-1" d="M8.89,106.68,19,100.34c2.47-1.56,4.93-3.13,7.42-4.66a2.69,2.69,0,0,1,1.3-.41c7.31,0,14.62,0,21.92,0a2.33,2.33,0,0,1,.44.14L15.86,116.91Z"/><path class="cls-1" d="M43.22,49.06H40.78c-6.39,0-12.79,0-19.18,0a4.5,4.5,0,0,1-2.2-.64c-4.13-2.53-8.22-5.14-12.58-7.89,2.1-3.54,4.17-7,6.29-10.64l30.13,19Z"/><path class="cls-1" d="M136.71,101.59l-6.13,10.74-26.8-16.85,0-.23h1.12c6.86,0,13.73,0,20.6,0a4.09,4.09,0,0,1,2,.56C130.51,97.65,133.47,99.54,136.71,101.59Z"/><path class="cls-2" d="M124.33,23.27,91,44.26V2.67A71.78,71.78,0,0,1,124.33,23.27Z"/><path class="cls-2" d="M52.05,44.26l-33.37-21A71.85,71.85,0,0,1,52.05,2.66Z"/><path class="cls-2" d="M52.07,98.92v41.61a71.91,71.91,0,0,1-33.4-20.6Z"/><path class="cls-2" d="M91,140.53V98.94l33.38,21A71.92,71.92,0,0,1,91,140.53Z"/></g></g></svg>