<svg xmlns="http://www.w3.org/2000/svg" viewBox="0 0 140.48 140.48"><defs><style>.cls-1{fill:#fff;}.cls-2{fill:#b22234;}.cls-3{fill:#3c3b6e;}</style></defs><g id="Layer_2" data-name="Layer 2"><g id="Layer_1-2" data-name="Layer 1"><path class="cls-1" d="M140.48,70.24c0,1.7-.06,3.39-.18,5.06a69.81,69.81,0,0,1-2,12.19,67.94,67.94,0,0,1-3.22,9.69,70.3,70.3,0,0,1-6.54,12.19,69.49,69.49,0,0,1-7.83,9.68,70.65,70.65,0,0,1-15.66,12.19,70.21,70.21,0,0,1-85.35-12.19A70,70,0,0,1,.18,75.3C.06,73.63,0,71.94,0,70.24c0-1.55.05-3.1.15-4.62A69.75,69.75,0,0,1,2,53.43a68.81,68.81,0,0,1,3.14-9.68,70.27,70.27,0,0,1,130.14,0,68.81,68.81,0,0,1,3.14,9.68,69.75,69.75,0,0,1,1.88,12.19C140.43,67.14,140.48,68.69,140.48,70.24Z"/><path class="cls-2" d="M105.84,9.68H34.64a70.3,70.3,0,0,1,71.2,0Z"/><path class="cls-2" d="M128.88,31.56H11.6a70.07,70.07,0,0,1,7.71-9.69H121.17A70.07,70.07,0,0,1,128.88,31.56Z"/><path class="cls-2" d="M138.45,53.43H2a68.81,68.81,0,0,1,3.14-9.68H135.31A68.81,68.81,0,0,1,138.45,53.43Z"/><path class="cls-2" d="M140.48,70.24c0,1.7-.06,3.39-.18,5.06H.18C.06,73.63,0,71.94,0,70.24c0-1.55.05-3.1.15-4.62H140.33C140.43,67.14,140.48,68.69,140.48,70.24Z"/><path class="cls-2" d="M138.34,87.49a67.94,67.94,0,0,1-3.22,9.69H5.36a69.22,69.22,0,0,1-3.22-9.69Z"/><path class="cls-2" d="M128.58,109.37a69.49,69.49,0,0,1-7.83,9.68h-101a69.49,69.49,0,0,1-7.83-9.68Z"/><path class="cls-2" d="M105.09,131.24a70.3,70.3,0,0,1-69.68,0Z"/><path class="cls-3" d="M70.24,0V75.3H0V70.24c0-.34,0-.68,0-1,0-1.89.12-3.76.3-5.6A70.15,70.15,0,0,1,29.17,13.26l.42-.31h0c.85-.6,1.72-1.19,2.6-1.76l.59-.38A69.65,69.65,0,0,1,55.87,1.48C57.4,1.15,59,.88,60.53.67A70.69,70.69,0,0,1,70.24,0Z"/><path class="cls-1" d="M59.61,1.57,60,4.08,57.78,2.89,55.53,4.08,56,1.57l-.09-.09C57.4,1.15,59,.88,60.53.67Z"/><path class="cls-1" d="M34.41,14.82l.44,2.51-2.26-1.19-2.25,1.19.43-2.51-1.6-1.56.42-.31h0l1.86-.27.74-1.49.59-.38.93,1.87,2.52.37Z"/><polygon class="cls-1" points="49.68 10.39 50.81 12.67 53.33 13.04 51.51 14.82 51.94 17.33 49.68 16.14 47.43 17.33 47.86 14.82 46.03 13.04 48.55 12.67 49.68 10.39"/><polygon class="cls-1" points="66.77 10.39 67.9 12.67 70.42 13.04 68.59 14.82 69.03 17.33 66.77 16.14 64.52 17.33 64.95 14.82 63.13 13.04 65.64 12.67 66.77 10.39"/><polygon class="cls-1" points="24.49 23.64 25.62 25.92 28.14 26.29 26.31 28.07 26.74 30.58 24.49 29.39 22.24 30.58 22.67 28.07 20.84 26.29 23.36 25.92 24.49 23.64"/><polygon class="cls-1" points="41.58 23.64 42.71 25.92 45.23 26.29 43.4 28.07 43.83 30.58 41.58 29.39 39.33 30.58 39.76 28.07 37.93 26.29 40.45 25.92 41.58 23.64"/><polygon class="cls-1" points="58.67 23.64 59.8 25.92 62.32 26.29 60.49 28.07 60.92 30.58 58.67 29.39 56.42 30.58 56.85 28.07 55.02 26.29 57.54 25.92 58.67 23.64"/><polygon class="cls-1" points="16.39 36.89 17.52 39.17 20.04 39.54 18.21 41.32 18.64 43.83 16.39 42.64 14.13 43.83 14.56 41.32 12.74 39.54 15.26 39.17 16.39 36.89"/><polygon class="cls-1" points="33.48 36.89 34.61 39.17 37.13 39.54 35.3 41.32 35.73 43.83 33.48 42.64 31.23 43.83 31.66 41.32 29.83 39.54 32.35 39.17 33.48 36.89"/><polygon class="cls-1" points="50.57 36.89 51.7 39.17 54.22 39.54 52.39 41.32 52.82 43.83 50.57 42.64 48.32 43.83 48.75 41.32 46.92 39.54 49.44 39.17 50.57 36.89"/><polygon class="cls-1" points="70.24 40.58 69.48 41.32 69.91 43.83 67.66 42.64 65.41 43.83 65.84 41.32 64.01 39.54 66.53 39.17 67.66 36.89 68.79 39.17 70.24 39.38 70.24 40.58"/><polygon class="cls-1" points="8.29 50.14 9.41 52.42 11.93 52.79 10.11 54.56 10.54 57.08 8.29 55.89 6.03 57.08 6.46 54.56 4.64 52.79 7.16 52.42 8.29 50.14"/><polygon class="cls-1" points="25.38 50.14 26.5 52.42 29.02 52.79 27.2 54.56 27.63 57.08 25.38 55.89 23.12 57.08 23.55 54.56 21.73 52.79 24.25 52.42 25.38 50.14"/><polygon class="cls-1" points="42.47 50.14 43.59 52.42 46.11 52.79 44.29 54.56 44.72 57.08 42.47 55.89 40.21 57.08 40.65 54.56 38.82 52.79 41.34 52.42 42.47 50.14"/><polygon class="cls-1" points="59.56 50.14 60.69 52.42 63.2 52.79 61.38 54.56 61.81 57.08 59.56 55.89 57.3 57.08 57.73 54.56 55.91 52.79 58.43 52.42 59.56 50.14"/><path class="cls-1" d="M2,67.81l.43,2.51L.19,69.14,0,69.23c0-1.89.12-3.76.3-5.6l1,2L3.83,66Z"/><polygon class="cls-1" points="17.28 63.39 18.4 65.67 20.92 66.04 19.1 67.81 19.53 70.32 17.28 69.14 15.02 70.32 15.45 67.81 13.63 66.04 16.15 65.67 17.28 63.39"/><polygon class="cls-1" points="34.37 63.39 35.49 65.67 38.01 66.04 36.19 67.81 36.62 70.32 34.37 69.14 32.11 70.32 32.54 67.81 30.72 66.04 33.24 65.67 34.37 63.39"/><polygon class="cls-1" points="51.46 63.39 52.58 65.67 55.1 66.04 53.28 67.81 53.71 70.32 51.46 69.14 49.2 70.32 49.63 67.81 47.81 66.04 50.33 65.67 51.46 63.39"/><polygon class="cls-1" points="70.24 65.75 70.24 70.03 68.55 69.14 66.29 70.32 66.72 67.81 64.9 66.04 67.42 65.67 68.55 63.39 69.67 65.67 70.24 65.75"/></g></g></svg>