<?xml version="1.0" encoding="utf-8"?>
<svg viewBox="10.584 10.5839 479.7556 479.7556" xmlns="http://www.w3.org/2000/svg">
  <g id="All" transform="matrix(0.6557620763778687, 0, 0, 0.6557620763778687, -156.8976593017578, -65.28775787353516)" style="">
    <g id="Developer-Center" transform="translate(-1008.000000, -2285.000000)">
      <g id="Group-28" transform="translate(382.000000, 2270.799999)">
        <g id="Group-29" transform="translate(0.000000, 0.200001)">
          <g id="Group-10" transform="translate(0.000000, 14.000000)">
            <g id="Group-13">
              <g id="Group-46" transform="translate(626.400000, 0.000000)">
                <g id="Group-45">
                  <circle id="Oval" class="st0" cx="620.8" cy="481.5" r="365.8" style="fill: rgb(98, 126, 234);"/>
                  <polygon id="Path" class="st1" points="632.2,207.1 632.2,409.9 803.6,486.5 &#9;&#9;&#9;&#9;&#9;&#9;&#9;&#9;" style="fill: rgb(255, 255, 255); fill-opacity: 0.602;"/>
                  <polygon id="Path_1_" class="st2" points="632.2,207.1 460.8,486.5 632.2,409.9 &#9;&#9;&#9;&#9;&#9;&#9;&#9;&#9;" style="fill: rgb(255, 255, 255);"/>
                  <polygon id="Path_2_" class="st1" points="632.2,617.9 632.2,755.7 803.7,518.4 &#9;&#9;&#9;&#9;&#9;&#9;&#9;&#9;" style="fill: rgb(255, 255, 255); fill-opacity: 0.602;"/>
                  <polygon id="Path_3_" class="st2" points="632.2,755.7 632.2,617.9 460.8,518.4 &#9;&#9;&#9;&#9;&#9;&#9;&#9;&#9;" style="fill: rgb(255, 255, 255);"/>
                  <polygon id="Path_4_" class="st3" points="632.2,586 803.6,486.5 632.2,409.9 &#9;&#9;&#9;&#9;&#9;&#9;&#9;&#9;" style="fill: rgb(255, 255, 255); fill-opacity: 0.2;"/>
                </g>
                <polygon id="Path_5_" class="st1" points="460.8,486.5 632.2,586 632.2,409.9 &#9;&#9;&#9;&#9;&#9;&#9;&#9;" style="fill: rgb(255, 255, 255); fill-opacity: 0.602;"/>
              </g>
            </g>
          </g>
        </g>
      </g>
    </g>
  </g>
</svg>