<?xml version="1.0" encoding="utf-8"?>
<svg viewBox="158.7045 106.9779 79.61 69.2546" xmlns="http://www.w3.org/2000/svg">
  <path d="M 173.28 107.318 L 158.764 137.809 C 158.651 138.042 158.702 138.321 158.891 138.499 L 198.096 176.066 C 198.327 176.288 198.692 176.288 198.924 176.066 L 238.128 138.501 C 238.317 138.324 238.368 138.044 238.255 137.811 L 223.739 107.32 C 223.643 107.111 223.434 106.977 223.204 106.978 L 173.82 106.978 C 173.589 106.975 173.377 107.108 173.28 107.318 Z" style="fill: rgb(80, 175, 149); fill-rule: evenodd;"/>
  <path d="M 203.546 140.94 C 203.265 140.961 201.811 141.048 198.567 141.048 C 195.987 141.048 194.155 140.971 193.513 140.94 C 183.542 140.502 176.1 138.766 176.1 136.688 C 176.1 134.61 183.542 132.876 193.513 132.431 L 193.513 139.212 C 194.165 139.258 196.032 139.369 198.612 139.369 C 201.708 139.369 203.258 139.24 203.537 139.214 L 203.537 132.435 C 213.487 132.879 220.912 134.614 220.912 136.688 C 220.912 138.761 213.489 140.497 203.537 140.938 L 203.546 140.94 Z M 203.546 131.734 L 203.546 125.666 L 217.432 125.666 L 217.432 116.413 L 179.627 116.413 L 179.627 125.666 L 193.51 125.666 L 193.51 131.732 C 182.226 132.25 173.74 134.485 173.74 137.164 C 173.74 139.842 182.226 142.075 193.51 142.596 L 193.51 162.04 L 203.544 162.04 L 203.544 142.589 C 214.802 142.071 223.274 139.838 223.274 137.162 C 223.274 134.485 214.809 132.253 203.544 131.732 L 203.546 131.734 Z M 203.546 131.734 Z" style="fill: rgb(255, 255, 255); fill-rule: evenodd;"/>
</svg>