<?xml version="1.0" encoding="utf-8"?>
<svg viewBox="183.048 118.651 62.692 62.692" xmlns="http://www.w3.org/2000/svg">
  <g style="" transform="matrix(0.031346000730991364, 0, 0, 0.031346000730991364, 204.30195617675784, 139.50015258789062)">
    <path d="M 321.956 1334.871 C 876.126 1334.871 1321.956 889.041 1321.956 334.871 C 1321.956 -219.299 876.126 -665.129 321.956 -665.129 C -232.214 -665.129 -678.044 -219.299 -678.044 334.871 C -678.044 889.041 -232.214 1334.871 321.956 1334.871 Z" fill="#2775ca"/>
    <path d="M 596.956 493.201 C 596.956 347.371 509.456 297.371 334.456 276.541 C 209.456 259.871 184.456 226.541 184.456 168.201 C 184.456 109.861 226.126 72.371 309.456 72.371 C 384.456 72.371 426.126 97.371 446.956 159.871 C 451.126 172.371 463.626 180.701 476.126 180.701 L 542.786 180.701 C 559.456 180.701 571.956 168.201 571.956 151.541 L 571.956 147.371 C 555.286 55.701 480.286 -15.129 384.456 -23.459 L 384.456 -123.459 C 384.456 -140.129 371.956 -152.629 351.126 -156.799 L 288.626 -156.799 C 271.956 -156.799 259.456 -144.299 255.286 -123.459 L 255.286 -27.629 C 130.286 -10.959 51.126 72.371 51.126 176.541 C 51.126 314.041 134.456 368.201 309.456 389.041 C 426.126 409.871 463.626 434.871 463.626 501.541 C 463.626 568.211 405.286 614.041 326.126 614.041 C 217.786 614.041 180.286 568.201 167.786 505.701 C 163.626 489.041 151.126 480.701 138.626 480.701 L 67.786 480.701 C 51.126 480.701 38.626 493.201 38.626 509.871 L 38.626 514.041 C 55.286 618.201 121.956 693.201 259.456 714.041 L 259.456 814.041 C 259.456 830.701 271.956 843.201 292.786 847.371 L 355.286 847.371 C 371.956 847.371 384.456 834.871 388.626 814.041 L 388.626 714.041 C 513.626 693.201 596.956 605.701 596.956 493.201 L 596.956 493.201 Z" fill="#fff"/>
    <path d="M 109.456 930.701 C -215.544 814.041 -382.214 451.541 -261.374 130.701 C -198.874 -44.299 -61.374 -177.629 109.456 -240.129 C 126.126 -248.459 134.456 -260.959 134.456 -281.799 L 134.456 -340.129 C 134.456 -356.799 126.126 -369.299 109.456 -373.459 C 105.286 -373.459 96.956 -373.459 92.786 -369.299 C -303.044 -244.299 -519.714 176.541 -394.714 572.371 C -319.714 805.701 -140.544 984.871 92.786 1059.871 C 109.456 1068.201 126.126 1059.871 130.286 1043.201 C 134.456 1039.041 134.456 1034.871 134.456 1026.541 L 134.456 968.201 C 134.456 955.701 121.956 939.041 109.456 930.701 Z M 551.126 -369.299 C 534.456 -377.629 517.786 -369.299 513.626 -352.629 C 509.456 -348.459 509.456 -344.299 509.456 -335.959 L 509.456 -277.629 C 509.456 -260.959 521.956 -244.299 534.456 -235.959 C 859.456 -119.299 1026.126 243.201 905.286 564.041 C 842.786 739.041 705.286 872.371 534.456 934.871 C 517.786 943.201 509.456 955.701 509.456 976.541 L 509.456 1034.871 C 509.456 1051.541 517.786 1064.041 534.456 1068.201 C 538.626 1068.201 546.956 1068.201 551.126 1064.041 C 946.956 939.041 1163.626 518.201 1038.626 122.371 C 963.626 -115.129 780.286 -294.299 551.126 -369.299 L 551.126 -369.299 Z" fill="#fff"/>
  </g>
</svg>