<svg xmlns="http://www.w3.org/2000/svg" viewBox="0 0 127.8 127.8"><defs><style>.cls-1{fill:#e5c775;}.cls-2{fill:#434172;}</style></defs><g id="Layer_2" data-name="Layer 2"><g id="Layer_1-2" data-name="Layer 1"><path class="cls-1" d="M118,29.49a29.4,29.4,0,0,1-7.51,19.66,28.34,28.34,0,0,1-2.32,2.33A29.35,29.35,0,0,1,98.3,57.3,29.06,29.06,0,0,1,88.48,59H9.83A9.82,9.82,0,0,1,0,49.15V29.49H19.66v9.83H88.48a9.83,9.83,0,0,0,0-19.66H0V9.83A9.83,9.83,0,0,1,9.83,0H88.48a29.45,29.45,0,0,1,19.66,7.51,28.22,28.22,0,0,1,2.32,2.32A29.4,29.4,0,0,1,118,29.49Z"/><path class="cls-2" d="M19.66,98.31a9.83,9.83,0,0,0,9.83,9.83h78.65V98.31H127.8V118A9.83,9.83,0,0,1,118,127.8H29.49a29.45,29.45,0,0,1-19.66-7.5C9,119.56,8.24,118.78,7.5,118A29.54,29.54,0,0,1,1.68,88.48a29.24,29.24,0,0,1,5.83-9.83,28.34,28.34,0,0,1,2.32-2.33,29.45,29.45,0,0,1,19.66-7.5H118a9.82,9.82,0,0,1,9.83,9.83v9.83H29.49A9.83,9.83,0,0,0,19.66,98.31Z"/></g></g></svg>